<svg width="128" height="128" viewBox="0 0 128 128" fill="none" xmlns="http://www.w3.org/2000/svg">
<circle cx="64" cy="64" r="64" fill="white"/>
<mask id="mask0_12_268" style="mask-type:luminance" maskUnits="userSpaceOnUse" x="88" y="33" width="28" height="11">
<path d="M88.3806 33H115.46V43.3383H88.3806V33Z" fill="white"/>
</mask>
<g mask="url(#mask0_12_268)">
<path d="M98.8194 33.0022L88.5738 43.2477H115.437V33.0022H98.8194Z" fill="#6699CC"/>
</g>
<mask id="mask1_12_268" style="mask-type:luminance" maskUnits="userSpaceOnUse" x="62" y="58" width="54" height="11">
<path d="M62.9539 58.4267H115.46V68.765H62.9539V58.4267Z" fill="white"/>
</mask>
<g mask="url(#mask1_12_268)">
<path d="M63.0839 68.7378H115.437V58.4507H73.3501L63.0839 68.7378Z" fill="#6699CC"/>
</g>
<mask id="mask2_12_268" style="mask-type:luminance" maskUnits="userSpaceOnUse" x="13" y="33" width="103" height="62">
<path d="M13 33H115.46V94.1545H13V33Z" fill="white"/>
</mask>
<g mask="url(#mask2_12_268)">
<path d="M88.6556 33.0022H25.3411V43.2477H63.9242L12.9846 94.1862H115.437V83.9821H37.7171L88.6556 33.0022Z" fill="#6699CC"/>
</g>
</svg>
