<?xml version="1.0" encoding="UTF-8"?>
<svg id="_レイヤー_6" data-name="レイヤー 6" xmlns="http://www.w3.org/2000/svg" width="50.28" height="52" viewBox="0 0 50.28 52">
  <defs>
    <style>
      .cls-1 {
        fill: #fff;
      }

      .cls-1, .cls-2 {
        stroke-width: 0px;
      }

      .cls-2 {
        fill: #5780b3;
      }
    </style>
  </defs>
  <circle class="cls-1" cx="25.14" cy="26" r="25"/>
  <path class="cls-2" d="m44.81,18.97c-.16-1.13-.54-2.21-1.13-3.25-.59-1.02-1.43-1.89-2.53-2.61-1.1-.72-2.55-1.07-4.35-1.07-.99,0-1.92.05-2.81.15,0,0,0,0,0,0,0,0,0,0-.01,0-.73.08-1.43.2-2.09.35-1.48.35-2.79.75-3.9,1.23-.67.29-1.27.57-1.81.86,0-.2.02-.41.01-.6-.03-.65-.38-1.08-1.01-1.26-.46-.13-.95-.2-1.45-.2-.51,0-1.04.04-1.56.13.48-.31.98-.68,1.52-1.13s1.12-.93,1.77-1.42c1.6-1.41,2.86-2.67,3.78-3.82.92-1.16,1.54-1.98,1.9-2.48.32-.49.34-.93.08-1.28-.26-.35-1.04-.77-2.31-1.2-.62-.21-1.33-.4-2.1-.57s-1.53-.31-2.27-.44c-.74-.12-1.4-.21-1.99-.27-.6-.05-1-.1-1.2-.09-.19.01-.41.04-.65.07-.24.05-.49.11-.72.23-.25.11-.46.29-.65.51s-.35.53-.45.91c-.09.31-.15.59-.18.84-.03.24-.05.43-.04.62.02.17.07.3.16.39.87-.17,1.69-.27,2.46-.29.75-.02,1.43-.03,2.02-.02.68.04,1.3.08,1.88.13,1.07.18,1.87.39,2.4.62-.3.48-.68.97-1.14,1.47-.45.5-.9.97-1.37,1.42-.47.45-.93.85-1.37,1.22-.43.37-.81.67-1.11.91-1.01.84-1.99,1.5-2.93,1.96-.96.48-1.66.79-2.13.99-.46.17-.78.49-.96.94-.16.47-.17.98,0,1.52.06.21.15.42.28.61.1.18.25.35.42.5.17.16.41.26.69.31,1.25-.64,2.27-1.1,3.07-1.36s1.44-.31,1.93-.17c.34.09.54.32.64.67.09.31-.08.86-.47,1.6-.09.07-.17.15-.24.22-.56.12-1.15.23-1.78.35-.68.12-1.42.23-2.23.34-1.65.28-3.2.76-4.67,1.44-1.46.67-2.77,1.44-3.92,2.33-1.15.87-2.1,1.79-2.88,2.75-.76.96-1.27,1.84-1.54,2.66-.19.62-.37,1.28-.5,1.98-.13.69-.13,1.35,0,2,.12.64.45,1.23.95,1.75.5.52,1.29.94,2.37,1.24,1.07.3,2.19.21,3.35-.24,1.16-.47,2.31-1.17,3.45-2.11,1.14-.94,2.24-2.04,3.29-3.26,1.05-1.23,2.02-2.46,2.9-3.7.88-1.24,1.63-2.4,2.26-3.48.15-.27.29-.52.43-.76.31-.31.63-.62.95-.92.53-.46,1-.89,1.46-1.26.07-.06.15-.11.22-.17.4-.15.8-.31,1.19-.5.02,0,.03-.02.05-.02-.18.66-.42,1.49-.68,2.52-.35,1.27-.75,2.71-1.16,4.3-.41,1.59-.86,3.25-1.32,5.01-.46,1.77-.91,3.47-1.35,5.13-.45,1.66-.86,3.2-1.23,4.66-.37,1.45-.67,2.66-.89,3.6-.43,1.78-.84,3.17-1.24,4.2-.4,1.03-.76,1.81-1.1,2.36-.33.54-.62.91-.86,1.11-.25.21-.43.35-.54.43h-.02c.38.45.78.81,1.23,1.07s.92.38,1.43.38c.99,0,1.72-.22,2.18-.67.46-.45.83-1.03,1.11-1.78.27-.68.56-1.51.83-2.47.27-.96.54-1.99.8-3.09s.51-2.21.73-3.36c.22-1.15.46-2.26.68-3.34,2.8-.14,5.28-.72,7.45-1.75,2.16-1.02,4.01-2.28,5.52-3.74,1.51-1.48,2.69-3.09,3.55-4.82.86-1.75,1.37-3.42,1.54-5.01.08-.84.03-1.86-.13-2.99Zm-23.24.34c-.11.17-.23.35-.35.55h-.02c-.7.96-1.56,2.09-2.6,3.39-1.04,1.3-2.12,2.52-3.22,3.68-1.1,1.16-2.17,2.1-3.19,2.85-1.02.74-1.85,1.02-2.51.84-.6-.17-.96-.53-1.06-1.06-.1-.52-.05-1.12.16-1.77.37-1.09.95-2.1,1.74-3.04.79-.94,1.77-1.77,2.9-2.53,1.13-.74,2.42-1.41,3.85-1.97,1.43-.56,2.98-1.04,4.63-1.44-.11.17-.23.33-.34.5Zm19.18,2.43c-.14,1.48-.48,2.83-.97,4.04s-1.11,2.29-1.86,3.25c-.75.96-1.56,1.8-2.47,2.53s-1.83,1.35-2.77,1.86c-.96.53-1.89.92-2.83,1.23s-1.8.51-2.56.62c.18-.92.32-1.74.45-2.47.13-.73.24-1.32.32-1.78h.02c.18-.83.41-1.93.73-3.29.25-1.16.6-2.67,1.05-4.54s1-4.17,1.69-6.94c-.06-.25-.16-.44-.28-.59.56-.33,1.07-.66,1.52-.97.08-.06.15-.11.23-.16.65-.19,1.29-.28,2.01-.28s1.48.13,2.23.37c.75.24,1.4.65,1.97,1.24.57.59,1,1.35,1.31,2.31.3.96.38,2.15.24,3.58Z"/>
</svg>