<?xml version="1.0" encoding="UTF-8"?>
<svg id="_レイヤー_1" data-name="レイヤー 1" xmlns="http://www.w3.org/2000/svg" width="256" height="256" viewBox="0 0 256 256">
  <defs>
    <style>
      .cls-1 {
        fill: #001e36;
      }

      .cls-1, .cls-2 {
        stroke-width: 0px;
      }

      .cls-2 {
        fill: #31a8ff;
      }
    </style>
  </defs>
  <rect class="cls-1" x="-3.28" width="262.56" height="256" rx="43.59" ry="43.59"/>
  <path class="cls-2" d="m55.84,179.52v-112.55c0-.82.35-1.23,1.06-1.23h1.11s1.91-.02,1.91-.02h0l2.65-.05h0l8.87-.19h0l9.51-.18h0c3.35-.06,6.66-.09,9.95-.09,8.92,0,16.44,1.12,22.55,3.35,5.51,1.86,10.53,4.93,14.71,8.98,3.54,3.51,6.27,7.75,8.01,12.42,1.65,4.54,2.48,9.34,2.47,14.18,0,9.4-2.17,17.15-6.52,23.25-4.25,5.96-10.18,10.51-17.02,13.08l-.59.22c-7.15,2.67-15.07,3.63-23.76,3.69h-1.35s-2,0-2,0h-1.01s-1.13-.04-1.13-.04h0l-.68-.03h0l-.41-.02h0l-1.01-.04h0l-1.24-.03h-1.87c-.14-.01-.27-.01-.42-.01v35.14c.06.44-.08.88-.4,1.19-.31.31-.75.46-1.19.4h-20.97c-.82,0-1.23-.47-1.23-1.41Zm23.79-92.65v36.71c1.52.12,2.93.18,4.23.18h5.81c4.01-.01,7.99-.61,11.83-1.77l.76-.24c3.49-1.04,6.61-3.05,8.98-5.81,2.21-2.6,3.35-6.19,3.43-10.76v-.51c.1-3.41-.79-6.77-2.55-9.69-1.85-2.82-4.53-5.01-7.66-6.25-4.09-1.59-8.47-2.34-12.86-2.2h-2.23s-1.41.02-1.41.02h0l-1.34.02h0l-1.9.04h0l-1.38.04h0l-.72.03h0l-.96.04h0l-.82.05h0l-.47.04h0l-.4.04c-.06,0-.12.01-.18.02l-.16.02Zm127.11,30.03c-3.07-1.58-6.33-2.77-9.7-3.53l-.78-.17c-3.71-.85-7.49-1.32-11.29-1.4h-.95c-2.23-.07-4.45.2-6.61.78-1.37.3-2.59,1.08-3.43,2.2-.57.89-.88,1.93-.88,2.99.03,1.03.4,2.02,1.06,2.82.94,1.09,2.06,2.01,3.32,2.7l.38.2c2.51,1.35,5.1,2.56,7.75,3.61,5.91,1.98,11.56,4.67,16.82,8.01,3.58,2.26,6.55,5.38,8.63,9.07,1.75,3.5,2.63,7.36,2.55,11.27.11,5.16-1.37,10.23-4.23,14.53-3.06,4.36-7.31,7.76-12.24,9.78-5.17,2.27-11.51,3.44-19.03,3.52h-.78c-4.66.05-9.32-.36-13.9-1.21l-.98-.19c-3.86-.71-7.62-1.89-11.18-3.52-.73-.38-1.2-1.12-1.23-1.94v-19.2c-.04-.38.13-.75.44-.97.31-.18.7-.14.97.09,4.21,2.48,8.79,4.3,13.56,5.37,4.21,1.05,8.52,1.62,12.86,1.67,4.11,0,7.13-.53,9.07-1.59,1.79-.82,2.93-2.61,2.91-4.58,0-1.52-.88-2.99-2.64-4.4-.74-.59-1.8-1.23-3.18-1.93l-.66-.32h0l-.7-.33c-.12-.06-.24-.11-.37-.17l-.77-.34c-.13-.06-.27-.12-.4-.17l-.84-.35c-.14-.06-.29-.12-.44-.18l-.91-.36c-.16-.06-.31-.12-.47-.18l-.98-.38h0l-1.02-.38h0c-5.53-1.92-10.77-4.59-15.59-7.93-3.44-2.39-6.28-5.56-8.28-9.25-1.73-3.47-2.61-7.31-2.55-11.18,0-4.66,1.27-9.23,3.7-13.21,2.77-4.38,6.74-7.87,11.45-10.04,5.17-2.58,11.62-3.87,19.38-3.88,4.54-.04,9.07.29,13.56.97,3.25.41,6.43,1.27,9.44,2.55.48.14.88.5,1.06.97.12.43.18.87.18,1.32v17.79c.02.42-.18.82-.53,1.06-.48.24-1.04.24-1.52,0Z"/>
</svg>