<?xml version="1.0" encoding="UTF-8"?>
<svg id="_レイヤー_1" data-name="レイヤー 1" xmlns="http://www.w3.org/2000/svg" width="256" height="256" viewBox="0 0 256 256">
  <defs>
    <style>
      .cls-1 {
        fill: #ff5d01;
      }

      .cls-1, .cls-2 {
        stroke-width: 0px;
      }
    </style>
  </defs>
  <path class="cls-2" d="m165.88,6.41c2.09,2.6,3.16,6.1,5.29,13.1l46.59,153.04c-17.22-8.94-35.95-15.38-55.7-18.86l-30.33-102.5c-.5-1.68-2.04-2.83-3.79-2.83s-3.3,1.16-3.79,2.84l-29.97,102.44c-19.84,3.46-38.65,9.92-55.95,18.89L85.06,19.48c2.14-6.99,3.21-10.49,5.3-13.08,1.85-2.29,4.25-4.06,6.97-5.16,3.09-1.24,6.75-1.24,14.06-1.24h33.44c7.32,0,10.98,0,14.08,1.24,2.73,1.1,5.13,2.88,6.98,5.17Z"/>
  <path class="cls-1" d="m171.46,179.84c-7.68,6.57-23.01,11.05-40.67,11.05-21.67,0-39.84-6.75-44.66-15.82-1.72,5.2-2.11,11.15-2.11,14.95,0,0-1.14,18.67,11.85,31.65,0-6.74,5.47-12.21,12.21-12.21,11.56,0,11.54,10.08,11.53,18.26,0,.24,0,.49,0,.73,0,12.42,7.59,23.06,18.38,27.54-1.61-3.32-2.52-7.04-2.52-10.97,0-11.84,6.95-16.25,15.03-21.37,6.43-4.08,13.57-8.61,18.49-17.69,2.57-4.74,4.03-10.17,4.03-15.94,0-3.55-.55-6.97-1.57-10.18Z"/>
</svg>