<svg width="256" height="256" viewBox="0 0 256 256" fill="none" xmlns="http://www.w3.org/2000/svg">
<g clip-path="url(#clip0_79_2)">
<path d="M8.30813 13.0007C5.88503 12.9694 3.57213 14.0113 1.98986 15.8467C0.407586 17.6821 -0.282086 20.1233 0.105844 22.5153L34.9246 233.888C35.82 239.228 40.4199 243.153 45.8336 243.198H212.873C216.937 243.25 220.426 240.319 221.075 236.308L255.894 22.5563C256.282 20.1643 255.592 17.7231 254.01 15.8877C252.428 14.0523 250.115 13.0104 247.692 13.0417L8.30813 13.0007ZM154.924 165.768H101.609L87.1731 90.3482H167.843L154.924 165.768Z" fill="#2684FF"/>
<path d="M244.611 90.2417H167.694L154.785 165.602H101.513L38.6108 240.265C40.6046 241.989 43.1465 242.947 45.7821 242.969H212.729C216.79 243.022 220.276 240.093 220.925 236.085L244.611 90.2417Z" fill="url(#paint0_linear_79_2)"/>
</g>
<defs>
<linearGradient id="paint0_linear_79_2" x1="22417.1" y1="2200.65" x2="13531.9" y2="14816.5" gradientUnits="userSpaceOnUse">
<stop offset="0.18" stop-color="#0052CC"/>
<stop offset="1" stop-color="#2684FF"/>
</linearGradient>
<clipPath id="clip0_79_2">
<rect width="256" height="231" fill="white" transform="translate(0 13)"/>
</clipPath>
</defs>
</svg>
