<svg width="256" height="256" viewBox="0 0 256 256" fill="none" xmlns="http://www.w3.org/2000/svg">
<g clip-path="url(#clip0_79_2)">
<path d="M9.26054 192.33C6.6194 196.637 3.65319 201.635 1.13394 205.617C-1.12098 209.428 0.0895486 214.342 3.85635 216.669L56.6793 249.176C58.5335 250.32 60.7698 250.673 62.8861 250.153C65.0024 249.634 66.8214 248.286 67.9346 246.413C70.0476 242.877 72.77 238.286 75.7362 233.369C96.6622 198.831 117.71 203.057 155.661 221.179L208.037 246.087C210.021 247.032 212.302 247.132 214.362 246.367C216.421 245.601 218.082 244.035 218.968 242.024L244.119 185.138C245.896 181.075 244.088 176.338 240.056 174.492C229.004 169.291 207.022 158.93 187.233 149.381C116.044 114.802 55.5416 117.037 9.26054 192.33Z" fill="url(#paint0_linear_79_2)"/>
<path d="M246.115 63.2319C248.756 58.9248 251.722 53.927 254.242 49.9449C256.497 46.1344 255.286 41.22 251.519 38.8928L198.696 6.38633C196.827 5.12728 194.519 4.70108 192.323 5.20956C190.127 5.71803 188.241 7.11551 187.116 9.06811C185.003 12.6032 182.281 17.1947 179.314 22.1113C158.388 56.6494 137.34 52.4236 99.3892 34.3012L47.1757 9.51508C45.192 8.57091 42.9106 8.47009 40.8514 9.2356C38.7922 10.0011 37.1306 11.5677 36.2454 13.5784L11.0936 70.4646C9.31656 74.5275 11.1247 79.2648 15.1569 81.1105C26.2091 86.3115 48.1915 96.6729 67.9798 106.222C139.331 140.76 199.834 138.444 246.115 63.2319Z" fill="url(#paint1_linear_79_2)"/>
</g>
<defs>
<linearGradient id="paint0_linear_79_2" x1="24269.7" y1="13936.6" x2="18354.4" y2="365.969" gradientUnits="userSpaceOnUse">
<stop offset="0.18" stop-color="#0052CC"/>
<stop offset="1" stop-color="#2684FF"/>
</linearGradient>
<linearGradient id="paint1_linear_79_2" x1="237.173" y1="-1538.57" x2="6161.93" y2="12038.6" gradientUnits="userSpaceOnUse">
<stop offset="0.18" stop-color="#0052CC"/>
<stop offset="1" stop-color="#2684FF"/>
</linearGradient>
<clipPath id="clip0_79_2">
<rect width="256" height="246" fill="white" transform="translate(0 5)"/>
</clipPath>
</defs>
</svg>
