<svg width="256" height="256" viewBox="0 0 256 256" fill="none" xmlns="http://www.w3.org/2000/svg">
<g clip-path="url(#clip0_79_2)">
<path d="M85.67 256C109.22 256 128.34 236.89 128.34 213.33V170.66H85.67C62.12 170.66 43 189.77 43 213.33C43 236.89 62.11 256 85.67 256Z" fill="#0ACF83"/>
<path d="M43 128C43 104.45 62.11 85.33 85.67 85.33H128.34V170.66H85.67C62.12 170.66 43 151.55 43 127.99V128Z" fill="#A259FF"/>
<path d="M43 42.67C43 19.11 62.11 0 85.67 0H128.34V85.33H85.67C62.11 85.33 43 66.22 43 42.67Z" fill="#F24E1E"/>
<path d="M128.33 0H171C194.55 0 213.67 19.11 213.67 42.67C213.67 66.23 194.56 85.34 171 85.34H128.33V0Z" fill="#FF7262"/>
<path d="M213.67 128C213.67 151.55 194.56 170.67 171 170.67C147.44 170.67 128.33 151.56 128.33 128C128.33 104.44 147.44 85.33 171 85.33C194.56 85.33 213.67 104.44 213.67 128Z" fill="#1ABCFE"/>
</g>
<defs>
<clipPath id="clip0_79_2">
<rect width="170.67" height="256" fill="white" transform="translate(43)"/>
</clipPath>
</defs>
</svg>
