<?xml version="1.0" encoding="UTF-8"?>
<svg id="_レイヤー_1" data-name="レイヤー 1" xmlns="http://www.w3.org/2000/svg" width="256" height="256" viewBox="0 0 256 256">
  <defs>
    <style>
      .cls-1 {
        fill: #f16529;
      }

      .cls-1, .cls-2, .cls-3, .cls-4 {
        stroke-width: 0px;
      }

      .cls-2 {
        fill: #e44d26;
      }

      .cls-3 {
        fill: #fff;
      }

      .cls-4 {
        fill: #ebebeb;
      }
    </style>
  </defs>
  <path class="cls-2" d="m240.86,0l-20.56,230.37-92.44,25.63-92.18-25.59L15.14,0h225.73Z"/>
  <path class="cls-1" d="m128,236.41l74.69-20.71,17.57-196.86h-92.27v217.57h0Z"/>
  <path class="cls-4" d="m88.02,75.36h39.98v-28.26H57.14l.68,7.58,6.95,77.87h63.24v-28.26h-37.39l-2.58-28.94h0Z"/>
  <path class="cls-4" d="m94.39,146.68h-28.37l3.96,44.37,57.89,16.07.13-.04v-29.4l-.12.03-31.47-8.5-2.01-22.54h0Z"/>
  <path class="cls-3" d="m127.9,132.55h34.8l-3.28,36.65-31.52,8.51v29.4l57.93-16.06.43-4.77,6.64-74.4.69-7.59h-65.69v28.26h0Z"/>
  <path class="cls-3" d="m127.9,75.29v.07h68.26l.57-6.35,1.29-14.33.68-7.58h-70.79v28.19h0Z"/>
</svg>