<svg width="256" height="256" viewBox="0 0 256 256" fill="none" xmlns="http://www.w3.org/2000/svg">
<g clip-path="url(#clip0_79_2)">
<path d="M27.491 65.8824C31.5736 65.944 35.3727 63.8013 37.432 60.2756C39.4913 56.7499 39.4913 52.3882 37.432 48.8625C35.3727 45.3368 31.5736 43.1941 27.491 43.2557C21.3094 43.3491 16.3472 48.3868 16.3472 54.569C16.3472 60.7513 21.3094 65.789 27.491 65.8824ZM200.762 56.2906C204.844 56.3518 208.643 54.2086 210.702 50.6827C212.761 47.1568 212.76 42.7951 210.701 39.2696C208.641 35.7442 204.842 33.6019 200.759 33.664C194.577 33.758 189.616 38.7963 189.617 44.9786C189.617 51.1608 194.58 56.198 200.762 56.2906Z" fill="#FF37AD"/>
<path d="M209.943 201.645C214.026 201.706 217.825 199.563 219.884 196.037C221.942 192.511 221.942 188.149 219.882 184.624C217.823 181.098 214.023 178.956 209.941 179.018C203.759 179.112 198.797 184.15 198.798 190.333C198.799 196.515 203.762 201.552 209.943 201.645ZM73.6985 22.6279C77.7811 22.6896 81.5802 20.5469 83.6395 17.0212C85.6988 13.4955 85.6988 9.13376 83.6395 5.60807C81.5802 2.08237 77.7811 -0.0603483 73.6985 0.00129511C67.517 0.0946318 62.5547 5.13234 62.5547 11.3146C62.5547 17.4969 67.517 22.5346 73.6985 22.6279Z" fill="#FCC954"/>
<path d="M140.634 101.196C137.915 101.196 135.347 99.9443 133.673 97.8019C131.999 95.6595 131.404 92.8652 132.061 90.2267C132.415 88.8108 132.704 87.3897 132.92 85.9712C130.269 87.0654 127.445 87.681 124.579 87.7895C119.442 87.9855 114.841 87.1189 110.92 85.2207C107.077 83.3797 103.877 80.4248 101.736 76.7405C97.5193 69.4313 97.883 59.8163 102.657 52.244C107.209 45.0147 114.918 41.1022 123.277 41.7418C129.714 42.2448 135.358 44.6562 139.876 48.7931C140.699 46.4719 141.488 43.9857 142.239 41.3395C146.855 25.0446 148.38 8.68264 148.392 8.51758C148.603 6.18498 149.732 4.03178 151.531 2.53217C153.33 1.03256 155.652 0.309529 157.984 0.522299C162.841 0.965146 166.42 5.25982 165.98 10.1166C165.915 10.8491 164.29 28.2943 159.227 46.1624C156.671 55.1842 153.651 62.8081 150.229 68.8948C150.482 70.2514 150.683 71.6442 150.832 73.0704C151.544 79.9592 150.977 87.3742 149.195 94.5106C148.208 98.4356 144.682 101.189 140.634 101.196ZM121.412 59.3314C120.499 59.3314 118.89 59.5997 117.595 61.6526C116.355 63.6205 116.112 66.308 117.033 67.9044C118.258 70.027 121.861 70.2127 123.901 70.1354C126.217 70.0477 128.59 68.5956 130.911 65.9495C130.523 65.1401 130.066 64.3661 129.544 63.636C127.628 60.9743 125.201 59.6126 121.905 59.3546C121.781 59.3469 121.613 59.3314 121.412 59.3314Z" fill="#2890E9"/>
<path d="M115.24 125.39C78.6143 96.5197 40.3324 84.011 29.7348 97.4534C28.7377 98.7319 28.0048 100.196 27.5787 101.76C27.5142 101.949 27.4626 102.147 27.4291 102.343V102.367C27.2872 102.97 27.1815 103.579 27.1119 104.198L6.37572 225.605C3.05381 245.103 22.356 260.714 40.7322 253.395L153.182 208.588C155.165 207.799 160.045 204.784 161.381 203.12C161.734 202.774 162.065 202.406 162.371 202.019C172.966 188.574 151.864 154.269 115.24 125.388V125.39Z" fill="#F0A420"/>
<path d="M162.358 202.024C172.961 188.574 151.867 154.264 115.24 125.391C78.6144 96.5172 40.3273 84.0136 29.7245 97.4638C19.1218 110.914 40.2164 145.224 76.8425 174.097C113.469 202.97 151.756 215.474 162.358 202.024Z" fill="#FCC954"/>
<path d="M155.965 194.191C164.664 183.152 145.499 153.534 113.154 128.037C80.8092 102.537 47.5333 90.8147 38.834 101.851C30.132 112.889 49.2975 142.508 81.6422 168.005C113.987 193.505 147.263 205.23 155.965 194.191Z" fill="#F0A420"/>
<path d="M78.6531 238.286C64.9682 238.353 53.8135 231.503 40.2938 220.846C24.5611 208.441 14.1131 193.59 13.2878 185.133L8.82849 211.237C10.8918 218.685 17.9251 228.127 28.1255 236.169C36.6108 242.859 45.1709 247.453 54.0457 248.09L78.6531 238.284V238.286ZM64.9631 190.908C38.7489 170.239 21.7189 146.521 22.1987 132.955L17.8528 158.393C18.1881 170.51 32.3475 190.09 52.4904 205.97C70.5391 220.199 89.3461 230.214 103.748 228.287L128.195 218.543C108.499 219.905 87.7161 208.851 64.9631 190.908Z" fill="#2E6AC9"/>
<path d="M119.228 138.557C123.31 138.619 127.109 136.476 129.169 132.95C131.228 129.424 131.228 125.063 129.169 121.537C127.109 118.011 123.31 115.869 119.228 115.93C113.046 116.024 108.084 121.061 108.084 127.244C108.084 133.426 113.046 138.464 119.228 138.557Z" fill="#2890E9"/>
<path d="M180.245 116.544L180.327 116.451C180.43 116.34 180.621 116.137 180.897 115.858C181.454 115.301 182.349 114.445 183.572 113.413C186.972 110.567 190.688 108.121 194.646 106.124C204.321 101.229 218.725 97.2342 237.617 101.59C243.293 102.899 248.956 99.359 250.265 93.6827C251.574 88.0065 248.034 82.3438 242.358 81.0347C217.902 75.3968 198.458 80.5524 185.119 87.3072C179.703 90.0402 174.62 93.3895 169.972 97.2884C168.577 98.4602 167.234 99.6925 165.946 100.982C165.446 101.484 164.958 101.998 164.484 102.524L164.37 102.653L164.329 102.699L164.311 102.72L164.303 102.728C164.3 102.733 164.295 102.738 172.291 109.614L164.295 102.738C160.592 107.153 161.116 113.722 165.473 117.494C169.829 121.265 176.406 120.842 180.245 116.544Z" fill="#FF37AD"/>
<path d="M75.7593 41.3111C74.1705 38.7877 71.6428 37.0003 68.7341 36.3437C65.8254 35.687 62.7749 36.2151 60.2562 37.8112C57.7356 39.4018 55.9506 41.929 55.2942 44.8362C54.6378 47.7435 55.1637 50.7924 56.7563 53.3117C57.1638 53.9643 65.5227 67.5072 67.2404 86.0537C68.9891 104.897 63.4517 122.218 50.7598 137.75C55.0334 143.181 60.1762 148.827 66.0514 154.473C74.1808 145.079 80.2959 134.985 84.3142 124.305C89.2584 111.164 91.007 97.2316 89.5163 82.8968C87.1409 60.0923 77.219 43.6271 75.7593 41.3111Z" fill="#FF37AD"/>
<path d="M216.381 149.567C222.114 151.05 226.166 152.667 227.917 153.42C232.116 155.997 237.5 155.565 241.233 152.35C243.671 150.244 245.098 147.199 245.156 143.978C245.239 139.052 242.126 134.638 237.457 133.063C232.09 130.68 211.756 122.633 184.877 124.062C166.784 125.024 149.385 130.035 133.168 138.972C117.812 147.434 103.552 159.425 90.6072 174.721C96.7829 179.117 103.216 183.138 109.873 186.763C131.731 161.851 156.95 148.347 185.05 146.562C195.586 145.923 206.158 146.936 216.381 149.567Z" fill="#2890E9"/>
</g>
<defs>
<clipPath id="clip0_79_2">
<rect width="244.537" height="256" fill="white" transform="translate(6)"/>
</clipPath>
</defs>
</svg>
