<?xml version="1.0" encoding="UTF-8"?>
<svg id="_レイヤー_1" data-name="レイヤー 1" xmlns="http://www.w3.org/2000/svg" width="256" height="256" viewBox="0 0 256 256">
  <defs>
    <style>
      .cls-1 {
        fill: #cd6799;
        stroke-width: 0px;
      }
    </style>
  </defs>
  <path class="cls-1" d="m220.28,142.51c-8.91.05-16.65,2.19-23.13,5.36-2.38-4.71-4.76-8.91-5.18-11.98-.47-3.59-1.03-5.78-.47-10.07.56-4.29,3.08-10.4,3.03-10.86s-.56-2.66-5.69-2.7c-5.13-.05-9.56.98-10.07,2.33-.51,1.35-1.49,4.43-2.15,7.6-.89,4.66-10.26,21.31-15.62,30.03-1.73-3.4-3.22-6.39-3.54-8.77-.47-3.59-1.03-5.78-.47-10.07.56-4.29,3.08-10.4,3.03-10.86-.05-.47-.56-2.66-5.69-2.7-5.13-.05-9.56.98-10.07,2.33-.51,1.35-1.07,4.52-2.14,7.6s-13.52,30.87-16.79,38.05c-1.68,3.68-3.12,6.62-4.15,8.63h0s-.05.14-.19.37c-.89,1.73-1.4,2.66-1.4,2.66v.05c-.7,1.26-1.45,2.42-1.82,2.42-.28,0-.79-3.36.09-7.93,1.87-9.65,6.3-24.67,6.25-25.18,0-.28.84-2.89-2.89-4.24-3.64-1.35-4.94.89-5.27.89s-.56.79-.56.79c0,0,4.06-16.88-7.74-16.88-7.37,0-17.53,8.07-22.57,15.34-3.17,1.73-9.93,5.41-17.16,9.37-2.75,1.54-5.6,3.08-8.25,4.52-.19-.19-.37-.42-.56-.61-14.27-15.25-40.66-26.02-39.54-46.49.42-7.46,2.98-27.05,50.69-50.83,39.26-19.35,70.5-13.99,75.91-2.1,7.74,16.97-16.74,48.5-57.31,53.07-15.48,1.73-23.59-4.24-25.65-6.48-2.14-2.33-2.47-2.47-3.26-2.01-1.31.7-.47,2.8,0,4.01,1.21,3.17,6.2,8.77,14.64,11.52,7.46,2.42,25.6,3.78,47.56-4.71,24.57-9.51,43.79-35.95,38.14-58.1-5.64-22.48-42.95-29.89-78.25-17.35-20.98,7.46-43.74,19.21-60.11,34.51C2.52,91.22-.56,107.03.7,113.65c4.52,23.5,36.93,38.8,49.89,50.13-.65.37-1.26.7-1.77.98-6.48,3.22-31.2,16.13-37.35,29.8-6.99,15.48,1.12,26.58,6.48,28.07,16.65,4.62,33.76-3.68,42.95-17.39,9.19-13.71,8.07-31.52,3.82-39.68-.05-.09-.09-.19-.19-.28,1.68-.98,3.4-2.01,5.08-2.98,3.31-1.96,6.57-3.78,9.37-5.27-1.59,4.34-2.75,9.51-3.31,16.97-.7,8.77,2.89,20.14,7.6,24.62,2.1,1.96,4.57,2.01,6.16,2.01,5.5,0,7.97-4.57,10.72-9.98,3.36-6.62,6.39-14.32,6.39-14.32,0,0-3.78,20.8,6.48,20.8,3.73,0,7.51-4.85,9.19-7.32v.05s.09-.14.28-.47c.37-.61.61-.98.61-.98v-.09c1.49-2.61,4.85-8.53,9.84-18.37,6.43-12.68,12.64-28.54,12.64-28.54,0,0,.56,3.87,2.47,10.31,1.12,3.78,3.45,7.93,5.32,11.94-1.49,2.1-2.42,3.26-2.42,3.26l.05.05c-1.21,1.59-2.52,3.31-3.96,4.99-5.08,6.06-11.14,13.01-11.98,15.01-.98,2.38-.75,4.1,1.12,5.5,1.35,1.03,3.78,1.17,6.25,1.03,4.57-.33,7.79-1.45,9.37-2.14,2.47-.89,5.36-2.24,8.07-4.24,4.99-3.68,8.02-8.95,7.74-15.9-.14-3.82-1.4-7.65-2.94-11.24.47-.65.89-1.31,1.35-1.96,7.88-11.52,13.99-24.15,13.99-24.15,0,0,.56,3.87,2.47,10.31.93,3.26,2.84,6.81,4.52,10.26-7.41,6.02-11.98,13.01-13.62,17.58-2.94,8.49-.65,12.31,3.68,13.2,1.96.42,4.76-.51,6.81-1.4,2.61-.84,5.69-2.28,8.63-4.43,4.99-3.68,9.79-8.81,9.51-15.76-.14-3.17-.98-6.3-2.14-9.33,6.3-2.61,14.41-4.06,24.76-2.84,22.2,2.61,26.58,16.46,25.74,22.29s-5.5,9-7.04,9.98-2.05,1.31-1.91,2.01c.19,1.03.93.98,2.24.79,1.82-.33,11.66-4.71,12.08-15.43.7-13.71-12.36-28.68-35.44-28.54h0Zm-171.23,57.73c-7.37,8.02-17.63,11.05-22.06,8.49-4.76-2.75-2.89-14.6,6.16-23.08,5.5-5.18,12.59-9.98,17.3-12.92,1.07-.65,2.66-1.59,4.57-2.75.33-.19.51-.28.51-.28h0c.37-.23.75-.47,1.12-.7,3.31,12.12.14,22.8-7.6,31.24h0Zm53.62-36.46c-2.56,6.25-7.93,22.24-11.19,21.36-2.8-.75-4.52-12.87-.56-24.85,2.01-6.02,6.25-13.2,8.72-15.99,4.01-4.48,8.44-5.97,9.51-4.15,1.35,2.38-4.9,19.72-6.48,23.64h0Zm44.25,21.17c-1.07.56-2.1.93-2.56.65-.33-.19.47-.93.47-.93,0,0,5.55-5.97,7.74-8.67,1.26-1.59,2.75-3.45,4.34-5.55v.61c0,7.13-6.9,11.94-9.98,13.9h0Zm34.13-7.79c-.79-.56-.65-2.42,2.01-8.25,1.03-2.28,3.45-6.11,7.6-9.79.47,1.49.79,2.94.75,4.29-.05,9-6.48,12.36-10.35,13.76h0Z"/>
</svg>