<svg width="256" height="256" viewBox="0 0 256 256" fill="none" xmlns="http://www.w3.org/2000/svg">
<g clip-path="url(#clip0_79_2)">
<path d="M229.1 101.383C229.1 45.3907 183.709 4.12081e-05 127.717 4.12081e-05C77.813 -0.0703357 35.2847 36.1986 27.4755 85.4881C19.6663 134.778 48.9007 182.416 96.3826 197.775V248.574C96.3826 252.511 99.5746 255.703 103.512 255.703H151.637C155.575 255.703 158.767 252.511 158.767 248.574V197.811C200.645 184.326 229.053 145.379 229.1 101.383ZM127.717 135.641C108.787 135.641 93.4416 120.295 93.4416 101.365C93.4416 82.4353 108.787 67.0896 127.717 67.0896C146.647 67.0896 161.993 82.4353 161.993 101.365C161.993 120.295 146.647 135.641 127.717 135.641Z" fill="#2684FF"/>
<path d="M127.717 -8.9076e-05V67.1252C146.647 67.1252 161.993 82.4709 161.993 101.401C161.993 120.331 146.647 135.676 127.717 135.676C136.028 135.676 143.998 138.978 149.874 144.854C155.751 150.73 159.052 158.701 159.052 167.011V197.847C206.551 182.485 235.799 134.831 227.989 85.5237C220.18 36.2165 177.639 -0.0675916 127.717 -8.9076e-05Z" fill="url(#paint0_linear_79_2)"/>
</g>
<defs>
<linearGradient id="paint0_linear_79_2" x1="5196.87" y1="17948.8" x2="5196.87" y2="7179.53" gradientUnits="userSpaceOnUse">
<stop offset="0.18" stop-color="#0052CC"/>
<stop offset="1" stop-color="#2684FF"/>
</linearGradient>
<clipPath id="clip0_79_2">
<rect width="203.528" height="256" fill="white" transform="translate(26)"/>
</clipPath>
</defs>
</svg>
