<?xml version="1.0" encoding="UTF-8"?>
<svg id="_レイヤー_1" data-name="レイヤー 1" xmlns="http://www.w3.org/2000/svg" width="256" height="256" xmlns:xlink="http://www.w3.org/1999/xlink" viewBox="0 0 256 256">
  <defs>
    <style>
      .cls-1 {
        fill: url(#_名称未設定グラデーション_2);
        stroke-width: 0px;
      }
    </style>
    <linearGradient id="_名称未設定グラデーション_2" data-name="名称未設定グラデーション 2" x1=".97" y1="256.36" x2="2" y2="256" gradientTransform="translate(-255 39476.2) scale(256 -153.6)" gradientUnits="userSpaceOnUse">
      <stop offset="0" stop-color="#2298bd"/>
      <stop offset="1" stop-color="#0ed7b5"/>
    </linearGradient>
  </defs>
  <path class="cls-1" d="m128.45,51.23c-34.13,0-55.47,17.07-64,51.2,12.8-17.07,27.73-23.47,44.8-19.2,9.74,2.43,16.7,9.5,24.4,17.32,12.55,12.74,27.07,27.48,58.8,27.48,34.13,0,55.47-17.07,64-51.2-12.8,17.07-27.73,23.47-44.8,19.2-9.74-2.43-16.7-9.5-24.4-17.32-12.55-12.74-27.07-27.48-58.8-27.48Zm-64,76.8c-34.13,0-55.47,17.07-64,51.2,12.8-17.07,27.73-23.47,44.8-19.2,9.74,2.43,16.7,9.5,24.4,17.32,12.55,12.74,27.07,27.48,58.8,27.48,34.13,0,55.47-17.07,64-51.2-12.8,17.07-27.73,23.47-44.8,19.2-9.74-2.43-16.7-9.5-24.4-17.32-12.55-12.74-27.07-27.48-58.8-27.48Z"/>
</svg>