<?xml version="1.0" encoding="UTF-8"?>
<svg id="_レイヤー_1" data-name="レイヤー 1" xmlns="http://www.w3.org/2000/svg" width="256" height="256" viewBox="0 0 256 256">
  <defs>
    <style>
      .cls-1 {
        fill: #fff;
      }

      .cls-1, .cls-2 {
        stroke-width: 0px;
      }

      .cls-2 {
        fill: #3178c6;
      }
    </style>
  </defs>
  <path class="cls-2" d="m11.25-5.52h229.5c11.74,0,21.25,9.51,21.25,21.25v229.5c0,11.74-9.51,21.25-21.25,21.25H11.25c-11.74,0-21.25-9.51-21.25-21.25V15.73C-10,4-.49-5.52,11.25-5.52Z"/>
  <path class="cls-1" d="m150.97,200.5v27.62c4.49,2.3,9.8,4.03,15.94,5.18,6.13,1.15,12.6,1.73,19.39,1.73s12.91-.63,18.87-1.9c5.96-1.27,11.19-3.35,15.68-6.26,4.49-2.91,8.05-6.7,10.67-11.39,2.62-4.69,3.93-10.49,3.93-17.39,0-5.01-.75-9.39-2.25-13.16-1.5-3.77-3.66-7.12-6.48-10.05-2.82-2.93-6.2-5.57-10.15-7.9-3.95-2.33-8.39-4.53-13.35-6.6-3.63-1.5-6.88-2.95-9.76-4.36-2.88-1.41-5.33-2.85-7.34-4.32-2.02-1.47-3.57-3.02-4.66-4.66s-1.64-3.5-1.64-5.57c0-1.9.49-3.61,1.47-5.14.98-1.52,2.36-2.83,4.15-3.93,1.79-1.09,3.97-1.94,6.57-2.55,2.59-.6,5.47-.91,8.64-.91,2.3,0,4.74.17,7.3.52,2.56.35,5.14.88,7.73,1.6,2.59.72,5.11,1.62,7.56,2.72,2.45,1.09,4.71,2.36,6.78,3.8v-25.81c-4.2-1.61-8.8-2.81-13.78-3.58s-10.7-1.17-17.15-1.17-12.78.71-18.66,2.11c-5.87,1.41-11.04,3.61-15.51,6.6-4.46,2.99-7.99,6.81-10.58,11.44-2.59,4.63-3.89,10.17-3.89,16.61,0,8.23,2.38,15.25,7.13,21.06,4.75,5.81,11.96,10.73,21.64,14.76,3.8,1.55,7.34,3.08,10.62,4.57,3.28,1.5,6.12,3.05,8.51,4.66,2.39,1.61,4.28,3.37,5.66,5.26,1.38,1.9,2.07,4.06,2.07,6.47,0,1.78-.43,3.44-1.3,4.96-.86,1.52-2.17,2.85-3.93,3.97-1.76,1.12-3.95,2-6.57,2.63-2.62.63-5.69.95-9.2.95-5.99,0-11.92-1.05-17.79-3.15-5.88-2.1-11.32-5.25-16.33-9.45h0Zm-46.04-68.73h35.52v-22.74H41.45v22.74h35.34v101.26h28.14v-101.26Z"/>
</svg>