<?xml version="1.0" encoding="UTF-8"?>
<svg id="_レイヤー_1" data-name="レイヤー 1" xmlns="http://www.w3.org/2000/svg" width="256" height="256" xmlns:xlink="http://www.w3.org/1999/xlink" viewBox="0 0 256 256">
  <defs>
    <style>
      .cls-1 {
        fill: url(#_名称未設定グラデーション);
        fill-opacity: .25;
      }

      .cls-1, .cls-2, .cls-3, .cls-4, .cls-5 {
        stroke-width: 0px;
      }

      .cls-6 {
        mask: url(#mask-2-3);
      }

      .cls-7 {
        mask: url(#mask-3);
      }

      .cls-2 {
        fill: #007acc;
      }

      .cls-3 {
        fill: #0065a9;
      }

      .cls-4 {
        fill: #fff;
      }

      .cls-8 {
        mask: url(#mask-1);
      }

      .cls-9 {
        mask: url(#mask);
      }

      .cls-5 {
        fill: #1f9cf0;
      }
    </style>
    <mask id="mask" x=".42" y="1.15" width="255.16" height="253.69" maskUnits="userSpaceOnUse">
      <g id="mask-2">
        <path id="path-1" class="cls-4" d="m181.25,253.75c4.02,1.56,8.6,1.46,12.65-.49l52.5-25.26c5.52-2.65,9.02-8.24,9.02-14.36V42.34c0-6.13-3.51-11.71-9.02-14.36L193.9,2.72c-5.32-2.56-11.55-1.93-16.22,1.46-.67.48-1.3,1.03-1.9,1.62l-100.51,91.69-43.78-33.23c-4.08-3.09-9.78-2.84-13.56.6l-14.04,12.77c-4.63,4.21-4.64,11.5-.01,15.71l37.97,34.64L3.89,162.63c-4.62,4.22-4.62,11.5.01,15.71l14.04,12.77c3.79,3.44,9.49,3.7,13.56.6l43.78-33.23,100.51,91.69c1.59,1.59,3.46,2.79,5.46,3.57Zm10.46-183.65l-76.26,57.89,76.26,57.89v-115.78Z"/>
      </g>
    </mask>
    <mask id="mask-1" x=".42" y="1.15" width="255.16" height="253.69" maskUnits="userSpaceOnUse">
      <g id="mask-2-2" data-name="mask-2">
        <path id="path-1-2" data-name="path-1" class="cls-4" d="m181.25,253.75c4.02,1.56,8.6,1.46,12.65-.49l52.5-25.26c5.52-2.65,9.02-8.24,9.02-14.36V42.34c0-6.13-3.51-11.71-9.02-14.36L193.9,2.72c-5.32-2.56-11.55-1.93-16.22,1.46-.67.48-1.3,1.03-1.9,1.62l-100.51,91.69-43.78-33.23c-4.08-3.09-9.78-2.84-13.56.6l-14.04,12.77c-4.63,4.21-4.64,11.5-.01,15.71l37.97,34.64L3.89,162.63c-4.62,4.22-4.62,11.5.01,15.71l14.04,12.77c3.79,3.44,9.49,3.7,13.56.6l43.78-33.23,100.51,91.69c1.59,1.59,3.46,2.79,5.46,3.57Zm10.46-183.65l-76.26,57.89,76.26,57.89v-115.78Z"/>
      </g>
    </mask>
    <mask id="mask-2-3" data-name="mask-2" x=".42" y="1.15" width="255" height="253.71" maskUnits="userSpaceOnUse">
      <g id="mask-2-4" data-name="mask-2">
        <path id="path-1-3" data-name="path-1" class="cls-4" d="m181.25,253.75c4.02,1.56,8.6,1.46,12.65-.49l52.5-25.26c5.52-2.65,9.02-8.24,9.02-14.36V42.34c0-6.13-3.51-11.71-9.02-14.36L193.9,2.72c-5.32-2.56-11.55-1.93-16.22,1.46-.67.48-1.3,1.03-1.9,1.62l-100.51,91.69-43.78-33.23c-4.08-3.09-9.78-2.84-13.56.6l-14.04,12.77c-4.63,4.21-4.64,11.5-.01,15.71l37.97,34.64L3.89,162.63c-4.62,4.22-4.62,11.5.01,15.71l14.04,12.77c3.79,3.44,9.49,3.7,13.56.6l43.78-33.23,100.51,91.69c1.59,1.59,3.46,2.79,5.46,3.57Zm10.46-183.65l-76.26,57.89,76.26,57.89v-115.78Z"/>
      </g>
    </mask>
    <mask id="mask-3" x=".42" y="1.15" width="255" height="253.69" maskUnits="userSpaceOnUse">
      <g id="mask-2-5" data-name="mask-2">
        <path id="path-1-4" data-name="path-1" class="cls-4" d="m181.25,253.75c4.02,1.56,8.6,1.46,12.65-.49l52.5-25.26c5.52-2.65,9.02-8.24,9.02-14.36V42.34c0-6.13-3.51-11.71-9.02-14.36L193.9,2.72c-5.32-2.56-11.55-1.93-16.22,1.46-.67.48-1.3,1.03-1.9,1.62l-100.51,91.69-43.78-33.23c-4.08-3.09-9.78-2.84-13.56.6l-14.04,12.77c-4.63,4.21-4.64,11.5-.01,15.71l37.97,34.64L3.89,162.63c-4.62,4.22-4.62,11.5.01,15.71l14.04,12.77c3.79,3.44,9.49,3.7,13.56.6l43.78-33.23,100.51,91.69c1.59,1.59,3.46,2.79,5.46,3.57Zm10.46-183.65l-76.26,57.89,76.26,57.89v-115.78Z"/>
      </g>
    </mask>
    <linearGradient id="_名称未設定グラデーション" data-name="名称未設定グラデーション" x1="-269.44" y1="527.93" x2="-269.44" y2="526.93" gradientTransform="translate(68835.12 133930.6) scale(255 -253.69)" gradientUnits="userSpaceOnUse">
      <stop offset="0" stop-color="#fff"/>
      <stop offset="1" stop-color="#fff" stop-opacity="0"/>
    </linearGradient>
  </defs>
  <g class="cls-9">
    <path class="cls-3" d="m246.56,28.02L194.01,2.72c-6.08-2.93-13.35-1.69-18.12,3.08L3.89,162.63c-4.63,4.22-4.62,11.5.01,15.71l14.05,12.77c3.79,3.44,9.49,3.7,13.57.6L238.65,34.58c6.95-5.27,16.93-.32,16.93,8.41v-.61c0-6.12-3.51-11.7-9.02-14.36Z"/>
  </g>
  <g class="cls-8">
    <path class="cls-2" d="m246.56,227.96l-52.54,25.3c-6.08,2.93-13.35,1.69-18.12-3.08L3.89,93.35c-4.63-4.22-4.62-11.5.01-15.71l14.05-12.77c3.79-3.44,9.49-3.7,13.57-.6l207.13,157.13c6.95,5.27,16.93.32,16.93-8.41v.61c0,6.12-3.51,11.7-9.02,14.36Z"/>
  </g>
  <g class="cls-6">
    <path class="cls-5" d="m193.85,253.28c-6.08,2.93-13.35,1.69-18.13-3.08,5.88,5.88,15.94,1.72,15.94-6.6V12.42c0-8.32-10.06-12.48-15.94-6.6,4.77-4.77,12.04-6.01,18.13-3.08l52.53,25.26c5.52,2.65,9.03,8.24,9.03,14.36v171.3c0,6.13-3.51,11.71-9.03,14.36l-52.53,25.26Z"/>
  </g>
  <g class="cls-7">
    <path class="cls-1" d="m181.25,253.75c4.02,1.56,8.6,1.46,12.65-.49l52.5-25.26c5.52-2.65,9.03-8.24,9.03-14.36V42.34c0-6.13-3.51-11.71-9.02-14.36L193.9,2.72c-5.32-2.56-11.55-1.93-16.22,1.46-.67.48-1.3,1.03-1.9,1.62l-100.51,91.69-43.78-33.23c-4.08-3.09-9.78-2.84-13.56.6l-14.04,12.77c-4.63,4.21-4.64,11.5-.01,15.71l37.97,34.64L3.89,162.63c-4.62,4.22-4.62,11.5.01,15.71l14.04,12.77c3.79,3.44,9.49,3.7,13.56.6l43.78-33.23,100.51,91.69c1.59,1.59,3.46,2.79,5.46,3.57Zm10.46-183.65l-76.26,57.89,76.26,57.89v-115.78Z"/>
  </g>
</svg>