<svg width="200" height="37" viewBox="0 0 200 37" fill="none" xmlns="http://www.w3.org/2000/svg">
<path d="M194.603 31.6711C193.504 31.6711 192.546 31.485 191.731 31.1127C190.933 30.7405 190.313 30.1821 189.87 29.4376C189.444 28.6932 189.232 27.7626 189.232 26.6458V20.7963C189.232 19.6796 189.444 18.7489 189.87 18.0045C190.313 17.26 190.933 16.7016 191.731 16.3294C192.546 15.9571 193.504 15.771 194.603 15.771C195.702 15.771 196.65 15.9571 197.448 16.3294C198.263 16.7016 198.892 17.26 199.335 18.0045C199.778 18.7489 200 19.6796 200 20.7963V26.6458C200 27.7626 199.778 28.6932 199.335 29.4376C198.892 30.1821 198.263 30.7405 197.448 31.1127C196.65 31.485 195.702 31.6711 194.603 31.6711ZM194.629 28.7995C194.913 28.7995 195.134 28.7286 195.294 28.5868C195.453 28.4273 195.56 28.2146 195.613 27.9487C195.684 27.6651 195.719 27.3283 195.719 26.9383V20.5038C195.719 20.1138 195.684 19.7859 195.613 19.52C195.56 19.2364 195.453 19.0237 195.294 18.8819C195.134 18.7224 194.913 18.6426 194.629 18.6426C194.345 18.6426 194.124 18.7224 193.964 18.8819C193.805 19.0237 193.69 19.2364 193.619 19.52C193.548 19.7859 193.512 20.1138 193.512 20.5038V26.9383C193.512 27.3283 193.548 27.6651 193.619 27.9487C193.69 28.2146 193.805 28.4273 193.964 28.5868C194.124 28.7286 194.345 28.7995 194.629 28.7995Z" fill="white"/>
<path d="M179.882 31.4052V16.0369H184.215V31.4052H179.882ZM179.855 13.4312V10.4266H184.215V13.4312H179.855Z" fill="white"/>
<path d="M170.086 31.4052V9.86829H174.393V31.4052H170.086Z" fill="white"/>
<path d="M159.44 31.6711C158.341 31.6711 157.383 31.485 156.568 31.1127C155.77 30.7405 155.15 30.1821 154.707 29.4376C154.281 28.6932 154.069 27.7626 154.069 26.6458V20.7963C154.069 19.6796 154.281 18.7489 154.707 18.0045C155.15 17.26 155.77 16.7016 156.568 16.3294C157.383 15.9571 158.341 15.771 159.44 15.771C160.539 15.771 161.487 15.9571 162.285 16.3294C163.1 16.7016 163.729 17.26 164.172 18.0045C164.616 18.7489 164.837 19.6796 164.837 20.7963V26.6458C164.837 27.7626 164.616 28.6932 164.172 29.4376C163.729 30.1821 163.1 30.7405 162.285 31.1127C161.487 31.485 160.539 31.6711 159.44 31.6711ZM159.466 28.7995C159.75 28.7995 159.971 28.7286 160.131 28.5868C160.291 28.4273 160.397 28.2146 160.45 27.9487C160.521 27.6651 160.556 27.3283 160.556 26.9383V20.5038C160.556 20.1138 160.521 19.7859 160.45 19.52C160.397 19.2364 160.291 19.0237 160.131 18.8819C159.971 18.7224 159.75 18.6426 159.466 18.6426C159.183 18.6426 158.961 18.7224 158.802 18.8819C158.642 19.0237 158.527 19.2364 158.456 19.52C158.385 19.7859 158.35 20.1138 158.35 20.5038V26.9383C158.35 27.3283 158.385 27.6651 158.456 27.9487C158.527 28.2146 158.642 28.4273 158.802 28.5868C158.961 28.7286 159.183 28.7995 159.466 28.7995Z" fill="white"/>
<path d="M143.615 31.4052V18.9616H142.152V16.0369H143.615V14.8935C143.615 13.9895 143.703 13.2007 143.881 12.5271C144.076 11.8535 144.466 11.3306 145.051 10.9584C145.653 10.5861 146.575 10.4 147.816 10.4C148.153 10.4 148.481 10.4089 148.8 10.4266C149.136 10.4443 149.5 10.4798 149.89 10.533V13.7502C149.766 13.7148 149.615 13.6882 149.438 13.6704C149.278 13.635 149.119 13.6173 148.959 13.6173C148.64 13.6173 148.392 13.7148 148.215 13.9097C148.037 14.087 147.949 14.3883 147.949 14.8138V16.0369H149.89V18.9616H147.949V31.4052H143.615Z" fill="white"/>
<path d="M135.888 31.5648C134.736 31.5648 133.85 31.3964 133.23 31.0596C132.609 30.7228 132.175 30.2353 131.927 29.5972C131.696 28.9413 131.581 28.1525 131.581 27.2308V18.8819H130.092V16.0369H131.581V11.3573H135.968V16.0369H138.149V18.8819H135.968V26.8054C135.968 27.2485 136.092 27.5676 136.34 27.7626C136.606 27.9576 136.934 28.055 137.324 28.055C137.555 28.055 137.767 28.0462 137.962 28.0285C138.157 27.993 138.335 27.9664 138.494 27.9487V31.3521C138.264 31.3875 137.9 31.4318 137.404 31.485C136.908 31.5382 136.403 31.5648 135.888 31.5648Z" fill="white"/>
<path d="M118.292 31.4052V16.0369H122.626V18.5894C123.122 17.7031 123.618 17.0295 124.115 16.5686C124.611 16.09 125.214 15.8507 125.923 15.8507C126.064 15.8507 126.189 15.8596 126.295 15.8773C126.401 15.8773 126.499 15.8951 126.587 15.9305V20.2379C126.392 20.1493 126.171 20.0784 125.923 20.0252C125.692 19.9543 125.444 19.9188 125.178 19.9188C124.682 19.9188 124.221 20.0518 123.796 20.3177C123.37 20.5835 122.98 20.9469 122.626 21.4078V31.4052H118.292Z" fill="white"/>
<path d="M107.779 31.6711C106.68 31.6711 105.722 31.485 104.907 31.1127C104.109 30.7405 103.489 30.1821 103.046 29.4376C102.62 28.6932 102.408 27.7626 102.408 26.6458V20.7963C102.408 19.6796 102.62 18.7489 103.046 18.0045C103.489 17.26 104.109 16.7016 104.907 16.3294C105.722 15.9571 106.68 15.771 107.779 15.771C108.878 15.771 109.826 15.9571 110.624 16.3294C111.439 16.7016 112.068 17.26 112.511 18.0045C112.954 18.7489 113.176 19.6796 113.176 20.7963V26.6458C113.176 27.7626 112.954 28.6932 112.511 29.4376C112.068 30.1821 111.439 30.7405 110.624 31.1127C109.826 31.485 108.878 31.6711 107.779 31.6711ZM107.805 28.7995C108.089 28.7995 108.31 28.7286 108.47 28.5868C108.629 28.4273 108.736 28.2146 108.789 27.9487C108.86 27.6651 108.895 27.3283 108.895 26.9383V20.5038C108.895 20.1138 108.86 19.7859 108.789 19.52C108.736 19.2364 108.629 19.0237 108.47 18.8819C108.31 18.7224 108.089 18.6426 107.805 18.6426C107.522 18.6426 107.3 18.7224 107.14 18.8819C106.981 19.0237 106.866 19.2364 106.795 19.52C106.724 19.7859 106.688 20.1138 106.688 20.5038V26.9383C106.688 27.3283 106.724 27.6651 106.795 27.9487C106.866 28.2146 106.981 28.4273 107.14 28.5868C107.3 28.7286 107.522 28.7995 107.805 28.7995Z" fill="white"/>
<path d="M85.6884 31.4053V9.86832H92.9206C94.2146 9.86832 95.2781 10.1165 96.1112 10.6128C96.9443 11.0914 97.5648 11.8004 97.9724 12.7399C98.3801 13.6617 98.584 14.7872 98.584 16.1167C98.584 17.7829 98.3092 19.0592 97.7597 19.9455C97.2102 20.814 96.4657 21.4167 95.5263 21.7535C94.5868 22.0903 93.5321 22.2587 92.3622 22.2587H90.4478V31.4053H85.6884ZM90.4478 18.9351H92.0431C92.6281 18.9351 93.0712 18.8287 93.3726 18.616C93.6739 18.4033 93.8689 18.0843 93.9575 17.6588C94.0639 17.2334 94.1171 16.6928 94.1171 16.0369C94.1171 15.4874 94.0728 15.0088 93.9841 14.6011C93.9132 14.1757 93.7271 13.8389 93.4258 13.5908C93.1244 13.3426 92.6547 13.2185 92.0166 13.2185H90.4478V18.9351Z" fill="white"/>
<path d="M70.6484 31.7922C69.1348 31.7922 67.8701 31.4536 66.8544 30.7765C65.8586 30.0993 65.0421 28.994 64.4048 27.4605L67.7208 25.9967C68.0394 26.7734 68.4079 27.3908 68.8261 27.8488C69.2643 28.287 69.7422 28.5061 70.26 28.5061C70.6384 28.5061 70.9173 28.4264 71.0965 28.2671C71.2957 28.1078 71.3952 27.8887 71.3952 27.6099C71.3952 27.1518 71.216 26.7336 70.8575 26.3552C70.519 25.9768 69.9016 25.4191 69.0053 24.6822L67.7506 23.6366C66.8345 22.8599 66.1076 22.1131 65.5699 21.3961C65.0521 20.6592 64.7931 19.7531 64.7931 18.6776C64.7931 17.7416 65.0321 16.915 65.5101 16.1981C66.008 15.4811 66.6652 14.9235 67.4818 14.5251C68.2983 14.1268 69.1746 13.9277 70.1107 13.9277C71.5446 13.9277 72.7396 14.316 73.6955 15.0927C74.6515 15.8695 75.3286 16.9648 75.7269 18.3789L72.5305 19.8128C72.411 19.4344 72.2417 19.056 72.0226 18.6776C71.8035 18.2992 71.5446 17.9805 71.2459 17.7216C70.9471 17.4627 70.6086 17.3333 70.2302 17.3333C69.9115 17.3333 69.6526 17.4229 69.4535 17.6021C69.2742 17.7814 69.1846 18.0204 69.1846 18.3191C69.1846 18.6975 69.3937 19.1058 69.8119 19.5439C70.2501 19.9821 70.8476 20.5099 71.6044 21.1272L72.8292 22.2027C73.3271 22.6209 73.815 23.069 74.293 23.547C74.771 24.025 75.1593 24.5528 75.4581 25.1303C75.7767 25.7079 75.9361 26.3651 75.9361 27.102C75.9361 28.0978 75.6871 28.9542 75.1892 29.6711C74.6913 30.3682 74.0341 30.896 73.2175 31.2545C72.4209 31.6129 71.5645 31.7922 70.6484 31.7922Z" fill="white"/>
<path d="M47.342 36.5122V33.1364C47.9594 33.1364 48.4672 33.0966 48.8655 33.0169C49.2838 32.9373 49.5925 32.7879 49.7916 32.5688C50.0107 32.3498 50.1202 32.051 50.1202 31.6726C50.1202 31.3341 50.0605 30.9258 49.941 30.4478C49.8215 29.9499 49.6721 29.3923 49.4929 28.7749L45.4301 14.2263H50.0007L52.1815 24.2042L53.8246 14.2263H58.4251L54.4519 31.9116C54.193 33.1066 53.7847 34.0327 53.2271 34.6899C52.6695 35.367 51.9824 35.835 51.1658 36.0939C50.3692 36.3728 49.463 36.5122 48.4473 36.5122H47.342Z" fill="white"/>
<path d="M41.7978 31.6727C40.5033 31.6727 39.5075 31.4835 38.8104 31.1051C38.1134 30.7267 37.6254 30.179 37.3466 29.462C37.0877 28.7251 36.9583 27.8389 36.9583 26.8032V17.4229H35.2853V14.2264H36.9583V8.9686H41.8874V14.2264H44.3371V17.4229H41.8874V26.3253C41.8874 26.8232 42.0269 27.1816 42.3057 27.4007C42.6044 27.6198 42.9729 27.7293 43.411 27.7293C43.6699 27.7293 43.9089 27.7194 44.128 27.6994C44.347 27.6596 44.5462 27.6297 44.7254 27.6098V31.4337C44.4665 31.4735 44.0583 31.5233 43.5006 31.583C42.943 31.6428 42.3754 31.6727 41.7978 31.6727Z" fill="white"/>
<path d="M31.3246 31.6727C30.03 31.6727 29.0342 31.4835 28.3372 31.1051C27.6401 30.7267 27.1522 30.179 26.8734 29.462C26.6145 28.7251 26.485 27.8389 26.485 26.8032V17.4229H24.8121V14.2264H26.485V8.9686H31.4142V14.2264H33.8638V17.4229H31.4142V26.3253C31.4142 26.8232 31.5536 27.1816 31.8324 27.4007C32.1311 27.6198 32.4996 27.7293 32.9377 27.7293C33.1966 27.7293 33.4356 27.7194 33.6547 27.6994C33.8738 27.6596 34.0729 27.6297 34.2522 27.6098V31.4337C33.9933 31.4735 33.585 31.5233 33.0274 31.583C32.4697 31.6428 31.9021 31.6727 31.3246 31.6727Z" fill="white"/>
<path d="M15.2536 31.7922C14.3773 31.7922 13.6404 31.5831 13.0429 31.1648C12.4454 30.7466 11.9973 30.2188 11.6986 29.5815C11.3999 28.9243 11.2505 28.2571 11.2505 27.58C11.2505 26.5045 11.4596 25.5984 11.8778 24.8615C12.316 24.1246 12.8836 23.5072 13.5806 23.0093C14.2777 22.5114 15.0445 22.0932 15.8809 21.7546C16.7174 21.3961 17.5439 21.0775 18.3604 20.7986V19.066C18.3604 18.7672 18.3306 18.5083 18.2708 18.2892C18.2111 18.0503 18.1115 17.871 17.9721 17.7515C17.8327 17.6121 17.6236 17.5424 17.3447 17.5424C17.0659 17.5424 16.8468 17.6021 16.6875 17.7216C16.5481 17.8411 16.4485 18.0104 16.3888 18.2295C16.329 18.4287 16.2892 18.6577 16.2693 18.9166L16.1498 20.1713L11.609 19.992C11.7086 17.9208 12.2562 16.3972 13.252 15.4214C14.2677 14.4256 15.7813 13.9277 17.7928 13.9277C19.5454 13.9277 20.8499 14.4156 21.7063 15.3915C22.5826 16.3474 23.0208 17.5922 23.0208 19.1257V27.1916C23.0208 27.9086 23.0307 28.5359 23.0506 29.0737C23.0905 29.6114 23.1303 30.0794 23.1701 30.4777C23.2299 30.8761 23.2797 31.2146 23.3195 31.4934H18.9579C18.8982 31.0354 18.8285 30.5375 18.7488 29.9998C18.6691 29.462 18.6094 29.1434 18.5696 29.0438C18.3704 29.7608 17.992 30.3981 17.4344 30.9557C16.8966 31.5134 16.1697 31.7922 15.2536 31.7922ZM16.9863 28.5061C17.1854 28.5061 17.3647 28.4662 17.524 28.3866C17.7032 28.3069 17.8625 28.1974 18.002 28.058C18.1414 27.9186 18.2609 27.7791 18.3604 27.6397V22.9197C17.9621 23.1587 17.5937 23.4076 17.2551 23.6665C16.9165 23.9055 16.6278 24.1744 16.3888 24.4731C16.1498 24.7718 15.9606 25.1005 15.8212 25.4589C15.7017 25.7975 15.6419 26.1859 15.6419 26.624C15.6419 27.2016 15.7614 27.6596 16.0004 27.9982C16.2394 28.3368 16.568 28.5061 16.9863 28.5061Z" fill="white"/>
<path d="M0 31.4934V28.3566L4.74993 17.7813H0.358485V14.2263H9.82847V17.1839L5.01879 27.9384H9.88822V31.4934H0Z" fill="white"/>
<path d="M60.1177 13.0119C61.6527 13.8354 63.4249 14.6243 65.0868 13.6665C66.3397 12.9443 67.3611 11.1768 66.8069 9.73195C66.649 9.32042 66.1464 8.96628 65.8149 8.69084C65.4357 8.3758 65.0319 8.08958 64.6151 7.82597C63.8118 7.31839 62.9356 6.93662 62.0224 6.67523C61.2249 6.447 60.3211 6.19798 59.5663 6.65883C58.9965 7.00663 58.5454 7.60916 58.3054 8.22269C57.9664 9.08987 57.8798 10.1532 58.2333 11.0335C58.5836 11.9057 59.3093 12.5631 60.1177 13.0119C60.9335 13.4643 61.5773 12.1715 60.7635 11.7197C59.9916 11.2918 59.4778 10.6582 59.4592 9.75897C59.4453 9.08463 59.7416 8.27801 60.2846 7.91843C60.5448 7.74609 60.9983 7.90648 61.348 7.98965C61.9061 8.12202 62.4416 8.31497 62.9598 8.56098C63.9693 9.0405 64.8564 9.70017 65.6369 10.4968L65.4341 10.1879C65.7097 11.0781 65.0004 12.1196 64.2072 12.5035C63.0675 13.0544 61.7511 12.2497 60.7635 11.7197C59.9417 11.2787 59.2965 12.5711 60.1177 13.0119Z" fill="white"/>
<path d="M51.0362 3.20003C52.4505 3.38726 53.8259 3.85703 55.0108 4.66437C55.2952 4.85818 55.5664 5.07525 55.8236 5.30347C55.9993 5.45952 56.2738 5.65078 56.312 5.85112C56.3635 6.12151 56.2281 6.56168 56.0741 6.85447C55.8236 7.3308 55.3821 7.74264 54.8923 7.96862C54.4003 8.19581 53.8156 8.12604 53.3133 7.96478C52.7113 7.77117 52.1019 7.4389 51.5639 7.10984C51.078 6.81292 50.5876 6.39628 50.381 5.85094C50.034 4.93676 50.4276 3.52683 51.4049 3.17674C52.281 2.86295 51.8236 1.49076 50.9454 1.8055C49.4775 2.33101 48.6473 4.03142 48.8315 5.54311C49.0559 7.38835 50.6735 8.3562 52.2185 9.06909C52.9566 9.40955 53.7857 9.64202 54.6047 9.53045C55.4559 9.41442 56.2215 8.9474 56.7955 8.31865C57.2672 7.80154 57.6118 7.14703 57.7174 6.45139C57.7705 6.10207 57.7799 5.73979 57.685 5.39611C57.571 4.98429 57.2961 4.70277 56.9929 4.41563C55.4521 2.95572 53.4081 2.05972 51.3142 1.78273C50.3962 1.66144 50.1087 3.07802 51.0359 3.20067L51.0362 3.20003Z" fill="white"/>
<path d="M57.0958 7.85551C57.1157 7.85539 57.1355 7.85598 57.1553 7.857L56.9679 7.84491C57.1278 7.8554 57.2829 7.89659 57.4345 7.94727L57.2506 7.88407C57.5639 7.99218 57.8619 8.14475 58.137 8.32907L57.9761 8.22001C58.1305 8.32496 58.2796 8.44068 58.4028 8.58136L58.2806 8.43874L58.2935 8.45407C58.4238 8.60884 58.5527 8.72774 58.76 8.76877C58.9309 8.80254 59.1516 8.76826 59.2953 8.66529C59.4496 8.55513 59.5802 8.3935 59.6095 8.20024C59.6357 8.02722 59.623 7.80574 59.5048 7.66551C59.3564 7.48925 59.208 7.33515 59.0211 7.20056C58.8112 7.04966 58.5942 6.90891 58.3638 6.79173C57.9409 6.57675 57.4775 6.41381 56.9993 6.41337C56.6198 6.41305 56.2842 6.81051 56.3251 7.1809C56.3705 7.59073 56.6895 7.85512 57.0952 7.85566L57.0958 7.85551Z" fill="white"/>
<path d="M66.7644 12.0832C66.7833 12.0842 66.8022 12.0852 66.8211 12.0861L66.6337 12.074C66.9632 12.0954 67.3022 12.1417 67.6203 12.2316C67.7146 12.2537 67.8073 12.252 67.8985 12.2261C67.9917 12.2158 68.0774 12.1831 68.1558 12.1283C68.2402 12.0776 68.3057 12.0106 68.3527 11.9263C68.4151 11.8501 68.4541 11.7622 68.4698 11.6627C68.497 11.4809 68.4752 11.2815 68.3651 11.1279L68.2429 10.9854C68.1434 10.8973 68.0285 10.8398 67.8985 10.8133C67.5021 10.7011 67.078 10.6587 66.6677 10.6406C66.5718 10.6435 66.4836 10.6685 66.4028 10.7161C66.3143 10.7498 66.2391 10.8039 66.1772 10.8778C66.1073 10.9503 66.0604 11.0343 66.0366 11.1297C65.9976 11.2176 65.9831 11.3105 65.9933 11.4084C66.0135 11.5909 66.0856 11.7787 66.2321 11.8988L66.3928 12.0077C66.51 12.0659 66.6335 12.0909 66.7638 12.0829L66.7644 12.0832Z" fill="white"/>
<path d="M50.1968 2.4091C49.936 2.09186 49.6479 1.77831 49.32 1.52847C49.2472 1.45859 49.163 1.41165 49.0673 1.38763C48.9792 1.34844 48.886 1.33379 48.788 1.34377C48.6922 1.34672 48.604 1.37169 48.5232 1.4193C48.4347 1.45297 48.3595 1.50705 48.2975 1.58104C48.1769 1.72745 48.0925 1.91739 48.1142 2.11149C48.1339 2.29004 48.2045 2.48846 48.3528 2.60172C48.6157 2.80213 48.8563 3.04588 49.0711 3.29615L48.9489 3.15356C48.9611 3.16808 48.9734 3.18229 48.9855 3.19725C49.0363 3.28159 49.1036 3.3471 49.1882 3.39423C49.2647 3.45667 49.3526 3.49578 49.4524 3.5117C49.5467 3.53382 49.6394 3.5321 49.7304 3.50612C49.8238 3.49589 49.9093 3.46314 49.9879 3.40834C50.142 3.29806 50.2726 3.13644 50.302 2.94329L50.3138 2.75619C50.3046 2.63008 50.2658 2.51421 50.1971 2.40803L50.1968 2.4091Z" fill="white"/>
</svg>
