<?xml version="1.0" encoding="UTF-8"?>
<svg id="_レイヤー_2" data-name="レイヤー 2" xmlns="http://www.w3.org/2000/svg" width="200" height="100" viewBox="0 0 200 100">
  <defs>
    <style>
      .cls-1 {
        fill: #fff;
        stroke-width: 0px;
      }
    </style>
  </defs>
  <path class="cls-1" d="m31.79,50.98c-.12.18-.33.44-.61.78s-.61.71-1,1.1-.83.8-1.32,1.22c-.49.42-1.02.8-1.57,1.14-.07.41-.21,1-.4,1.76-.2.76-.46,1.59-.78,2.49-.32.9-.7,1.81-1.13,2.73-.43.92-.91,1.77-1.44,2.53-.53.76-1.11,1.38-1.73,1.86-.63.47-1.29.71-1.99.71s-1.25-.12-1.64-.35c-.39-.23-.69-.53-.87-.9-.19-.37-.3-.77-.34-1.21s-.04-.87-.03-1.28c.02-.54.18-1.16.48-1.87.31-.71.73-1.43,1.28-2.15.55-.73,1.21-1.42,1.98-2.07.77-.66,1.63-1.21,2.58-1.66.47-.2.9-.39,1.29-.58.39-.19.76-.37,1.1-.55.14-.59.16-.99.04-1.18-.12-.2-.28-.3-.5-.3-.32,0-.7.14-1.14.43s-.98.74-1.63,1.34c-.18.02-.34,0-.47-.07-.13-.06-.25-.14-.34-.23-.11-.09-.2-.2-.27-.32-.2-.3-.28-.61-.26-.92.03-.3.17-.55.42-.73.25-.2.62-.51,1.12-.96.49-.44.97-1,1.44-1.68.14-.2.32-.44.52-.74s.41-.62.62-.97.4-.71.59-1.09c.19-.38.34-.74.44-1.08-.36-.05-.88-.04-1.56.03-.36.07-.74.15-1.16.24-.36.09-.77.21-1.22.35-.46.14-.94.34-1.44.59-.07-.04-.12-.11-.16-.21-.04-.11-.06-.23-.08-.38-.02-.16-.03-.34-.03-.54,0-.25.04-.46.12-.63.08-.17.18-.31.31-.42.12-.11.26-.19.4-.26.14-.06.27-.11.38-.15.12-.04.37-.08.74-.15.37-.06.78-.12,1.25-.17s.95-.09,1.45-.12c.5-.03.96-.03,1.37-.01.84.05,1.38.17,1.6.34.22.17.28.44.17.79-.13.36-.37.96-.73,1.82-.36.85-.91,1.83-1.64,2.95-.31.41-.58.8-.83,1.16-.25.36-.49.67-.73.94.3-.14.61-.26.92-.34.3-.08.61-.12.91-.12.41,0,.69.2.82.59.13.39.21.83.23,1.29.72-.45,1.36-.92,1.92-1.43.57-.5,1.17-1.15,1.82-1.94.16-.2.31-.31.44-.35.13-.04.24-.01.31.07.07.08.11.2.11.35s-.05.31-.16.47Zm-6.73,5.86c.04-.14.08-.27.12-.39.04-.12.08-.24.12-.36-.93.52-1.79,1.07-2.56,1.65-.77.58-1.44,1.2-2,1.84-.56.65-1.01,1.32-1.33,2.02-.32.7-.5,1.41-.54,2.13-.02.43.05.8.2,1.1s.43.46.82.46c.43,0,.89-.31,1.38-.93.49-.62.98-1.37,1.45-2.26.47-.89.92-1.81,1.33-2.77.41-.96.74-1.79,1-2.49Z"/>
  <path class="cls-1" d="m43.95,49.95c-.25.36-.57.8-.97,1.33-.4.53-.8,1.06-1.22,1.59-.42.53-.83,1.01-1.24,1.45-.4.44-.74.75-1.01.93-.18.11-.39.2-.62.27-.23.07-.47.12-.71.13s-.47,0-.69-.04c-.22-.04-.4-.12-.57-.23-.16-.13-.3-.3-.4-.54-.09-.2-.17-.46-.26-.78-.08-.32-.11-.73-.09-1.21-.43.72-.91,1.27-1.43,1.65-.52.39-1.01.67-1.48.85-.54.2-1.08.31-1.61.35-.25,0-.52-.08-.81-.25-.29-.17-.53-.44-.73-.81-.2-.37-.32-.84-.38-1.43-.05-.58.02-1.28.21-2.08.25-1.09.65-2.09,1.2-2.99.55-.9,1.14-1.66,1.79-2.3.65-.64,1.28-1.12,1.91-1.44.63-.32,1.15-.47,1.56-.43.48.09.88.23,1.18.43.25.18.42.44.5.79.08.35-.07.81-.44,1.39.25-.05.46-.09.63-.11.17-.02.3-.03.39-.03.11,0,.18,0,.21.03.02.04.03.11.03.23s-.03.33-.08.63c-.05.31-.13.72-.24,1.24s-.25,1.19-.43,2.02c-.04.16-.07.31-.09.44-.03.13-.05.27-.08.4-.03.13-.06.29-.09.47-.04.18-.08.4-.13.67-.02.16-.02.34-.01.52s.04.36.09.52.14.29.25.39c.12.1.28.15.5.15.18,0,.41-.11.7-.34.29-.22.59-.51.92-.86s.66-.74,1.01-1.16c.35-.42.68-.83.98-1.22.3-.39.58-.74.82-1.05.24-.31.42-.53.52-.67.14-.16.29-.26.43-.28.14-.03.25.01.32.12.07.11.08.27.04.48-.04.22-.17.47-.39.75Zm-7.88,1.18c.09-.36.2-.78.32-1.26.12-.48.23-.95.32-1.4.09-.45.16-.82.2-1.12.04-.3.03-.44-.04-.42-.09.02-.19.04-.3.08-.09.04-.21.06-.35.08-.14.02-.29.04-.43.08.14-.29.23-.52.26-.71.03-.19.03-.34.01-.44-.02-.12-.05-.22-.11-.3-.2-.16-.54-.03-1.04.39-.49.42-1.06,1.2-1.71,2.33-.27.47-.48.96-.65,1.49s-.27,1.03-.34,1.49c-.06.47-.08.87-.04,1.22.04.35.11.58.22.69.2.2.42.29.67.28.25,0,.51-.08.77-.21.26-.13.52-.31.78-.52.26-.22.49-.44.7-.67s.38-.45.51-.65c.13-.2.21-.34.23-.43Z"/>
  <path class="cls-1" d="m52.08,48.5c.07-.11.17-.17.28-.2.12-.03.21-.01.28.04.07.05.11.14.12.27,0,.13-.04.3-.15.51-.36.68-.83,1.42-1.41,2.21s-1.2,1.53-1.84,2.22-1.27,1.26-1.88,1.71c-.61.45-1.12.67-1.53.67-.59,0-1.08-.12-1.48-.35-.39-.23-.7-.52-.93-.86-.22-.34-.38-.71-.47-1.12-.09-.4-.12-.78-.08-1.12.02-.29.08-.8.19-1.55.11-.74.25-1.6.43-2.58.18-.98.38-2.03.61-3.15.22-1.12.46-2.2.71-3.24-.3.04-.61.07-.91.11-.31.04-.58.05-.83.05-.57,0-1.12-.07-1.63-.2-.51-.13-.89-.26-1.14-.39-.14-.07-.21-.17-.19-.31.02-.13.07-.27.16-.4.09-.13.2-.25.34-.35.13-.1.26-.15.36-.15.34.04.71.07,1.1.09.39.03.83.03,1.29.01.34-.02.67-.04.98-.08s.62-.08.93-.13c.23-.86.46-1.61.69-2.25.22-.64.43-1.08.61-1.33.05-.09.17-.17.36-.23s.39-.11.61-.13c.21-.03.42-.03.62,0s.34.09.43.2c.09.14.12.51.11,1.1-.02.59-.12,1.35-.3,2.26.75,0,1.42.04,2,.12.58.08,1.08.17,1.49.27.41.1.74.2,1,.3s.44.17.57.2c.12.04.19.13.2.27s-.02.29-.08.44c-.06.15-.17.28-.31.39-.14.11-.31.14-.48.11-.18-.02-.38-.05-.61-.11-.22-.05-.49-.1-.81-.13-.31-.04-.69-.07-1.12-.11-.43-.04-.93-.05-1.51-.05-.11,0-.23,0-.36.01-.13,0-.27.01-.42.01-.07.29-.14.57-.2.85-.06.28-.15.57-.26.87-.23.72-.5,1.5-.81,2.34-.27.74-.59,1.58-.97,2.53-.38.95-.8,1.96-1.26,3.04-.11.77-.09,1.36.04,1.76.13.4.3.7.5.88.23.2.52.3.86.32.27.04.6-.06.98-.28.39-.22.78-.52,1.2-.9.41-.38.83-.79,1.25-1.24s.81-.89,1.17-1.32c.36-.43.67-.82.94-1.17.27-.35.46-.6.56-.74Z"/>
  <path class="cls-1" d="m60.39,48.5c.07-.11.17-.17.28-.2.12-.03.21-.01.28.04.07.05.11.14.12.27,0,.13-.04.3-.15.51-.36.68-.83,1.42-1.41,2.21s-1.2,1.53-1.84,2.22c-.65.69-1.27,1.26-1.88,1.71-.61.45-1.12.67-1.53.67-.59,0-1.09-.12-1.48-.35-.39-.23-.7-.52-.93-.86-.22-.34-.38-.71-.47-1.12-.09-.4-.12-.78-.08-1.12.02-.29.08-.8.19-1.55.11-.74.25-1.6.43-2.58.18-.98.38-2.03.61-3.15.22-1.12.46-2.2.71-3.24-.31.04-.61.07-.92.11-.3.04-.58.05-.83.05-.57,0-1.12-.07-1.63-.2-.51-.13-.89-.26-1.14-.39-.14-.07-.21-.17-.19-.31.02-.13.07-.27.16-.4.09-.13.2-.25.34-.35.13-.1.26-.15.36-.15.34.04.71.07,1.1.09s.82.03,1.29.01c.34-.02.67-.04.98-.08.31-.04.62-.08.93-.13.23-.86.46-1.61.69-2.25.22-.64.43-1.08.6-1.33.05-.09.18-.17.36-.23.19-.06.39-.11.61-.13.22-.03.42-.03.62,0s.34.09.43.2c.09.14.12.51.11,1.1-.02.59-.12,1.35-.3,2.26.75,0,1.42.04,2,.12.58.08,1.08.17,1.49.27.41.1.74.2,1,.3s.44.17.57.2c.12.04.19.13.2.27,0,.14-.02.29-.08.44-.06.15-.17.28-.31.39s-.3.14-.48.11c-.18-.02-.38-.05-.61-.11-.22-.05-.49-.1-.81-.13-.31-.04-.69-.07-1.12-.11-.43-.04-.93-.05-1.51-.05-.11,0-.23,0-.36.01-.13,0-.27.01-.42.01-.07.29-.14.57-.2.85-.06.28-.15.57-.25.87-.23.72-.5,1.5-.81,2.34-.27.74-.59,1.58-.97,2.53-.38.95-.8,1.96-1.26,3.04-.11.77-.09,1.36.04,1.76.13.4.3.7.5.88.23.2.52.3.86.32.27.04.6-.06.98-.28.38-.22.78-.52,1.2-.9.41-.38.83-.79,1.25-1.24.42-.45.81-.89,1.17-1.32.36-.43.67-.82.94-1.17.27-.35.46-.6.57-.74Z"/>
  <path class="cls-1" d="m65.85,45.41c.23-.18.46-.32.69-.42.22-.1.43-.17.6-.2.2-.05.39-.07.59-.05.48.04.78.19.9.46.12.27.13.7.04,1.29-.05.31-.16.69-.32,1.16-.16.47-.35,1.04-.56,1.71-.22.67-.44,1.44-.69,2.3-.24.86-.47,1.83-.69,2.91-.22.88-.45,1.89-.7,3.04-.21,1-.47,2.21-.77,3.63-.3,1.42-.61,3.04-.96,4.87-.09.45-.28.71-.58.78-.3.07-.61.04-.93-.11-.13-.07-.24-.15-.35-.24-.09-.09-.19-.19-.3-.31-.11-.12-.2-.27-.27-.47.41-1.51.78-2.88,1.09-4.12.31-1.24.6-2.31.85-3.23.27-1.06.52-2.01.75-2.85.09-.38.17-.75.25-1.12.08-.37.17-.73.26-1.09-.23.38-.48.74-.75,1.08-.27.34-.57.64-.89.89-.32.25-.67.44-1.04.58-.37.13-.75.17-1.14.12-.97-.12-1.65-.48-2.06-1.08-.4-.59-.58-1.36-.52-2.31.02-.38.07-.79.16-1.24s.19-.88.3-1.29c.11-.41.21-.79.31-1.12.1-.33.17-.57.23-.71.21-.68.37-1.26.47-1.75s.02-.89-.23-1.21c.25-.16.49-.27.71-.34.22-.06.43-.11.61-.15.2-.02.39-.02.59,0,.48.07.77.25.85.54.08.29.05.72-.09,1.29-.07.31-.19.7-.35,1.17-.16.47-.33.96-.51,1.47-.18.5-.34.96-.48,1.39-.14.42-.22.72-.24.9-.16.81-.17,1.43-.03,1.87.14.44.46.66.94.66.23,0,.49-.1.78-.31.29-.21.58-.48.88-.82.3-.34.59-.73.87-1.17s.55-.88.79-1.33.46-.89.65-1.32c.19-.43.33-.82.42-1.16.12-.66.21-1.18.24-1.56.04-.38-.09-.72-.38-1.02Z"/>
  <path class="cls-1" d="m74.06,35.16c.41-.09.7-.12.87-.09.17.03.25.09.23.17-.05.14-.15.44-.28.87s-.3,1-.48,1.67c-.19.67-.4,1.44-.63,2.3-.23.86-.48,1.78-.73,2.74-.04.05-.1.12-.19.19-.09.05-.21.1-.36.15-.15.04-.35.07-.61.07-.25.02-.43,0-.54-.04-.11-.04-.18-.1-.21-.17-.05-.07-.07-.15-.05-.24.02-.05.04-.12.05-.19.02-.05.03-.12.04-.19,0-.07.02-.13.04-.19l1.4-5.78c.09-.36.23-.62.42-.79s.53-.33,1.04-.47Z"/>
  <path class="cls-1" d="m76.88,54.39c.11.07.25.11.42.11s.34-.04.51-.11c.17-.07.33-.17.48-.3.15-.12.26-.29.34-.48.07-.2.07-.48,0-.85-.07-.37-.18-.76-.34-1.18-.15-.42-.32-.85-.5-1.28-.18-.43-.33-.83-.46-1.18-.11-.27-.2-.52-.27-.75-.07-.2-.14-.39-.2-.58-.06-.19-.11-.32-.15-.39-.09.14-.25.38-.47.7-.22.32-.47.66-.73,1.01-.26.35-.51.67-.74.97s-.39.5-.48.61c-.14.16-.28.25-.42.28-.13.03-.25,0-.34-.08-.09-.08-.14-.2-.15-.35,0-.15.06-.34.2-.55.11-.14.27-.37.48-.69s.43-.64.65-.97c.22-.33.41-.63.59-.89.18-.26.28-.42.3-.47.04-.14-.01-.33-.15-.56s-.16-.5-.07-.81c.07-.25.23-.54.48-.87.25-.33.55-.63.89-.9s.69-.47,1.05-.61c.36-.13.68-.13.97.01.23.14.42.3.57.47.14.17.2.35.16.52-.04.09-.09.21-.16.35-.07.14-.18.32-.32.52-.14.21-.35.47-.62.79.05.41.13.79.23,1.13.1.34.19.64.28.89.11.3.22.58.35.83.16.32.33.66.51,1,.18.34.34.68.48,1.01.14.33.26.64.35.93s.12.53.08.73c-.05.3-.21.67-.47,1.1s-.58.85-.97,1.25-.83.75-1.32,1.04c-.49.29-1.01.43-1.55.43-.38,0-.74-.12-1.09-.35-.35-.23-.65-.51-.89-.82s-.42-.62-.54-.93c-.12-.3-.13-.54-.04-.7.11-.22.21-.39.3-.51.09-.12.22-.27.4-.43.07-.05.16-.12.27-.19.09-.05.21-.11.38-.16.16-.05.35-.12.56-.19.18.56.34.99.48,1.31.14.31.26.56.35.74.11.2.21.33.3.4Z"/>
  <path class="cls-1" d="m89.12,59.15c.07-.05.18-.14.34-.27.15-.13.33-.36.54-.7.21-.34.44-.83.69-1.48.25-.65.51-1.52.78-2.64.14-.59.33-1.35.56-2.26.23-.92.49-1.89.77-2.93s.56-2.11.85-3.22.57-2.15.83-3.15.51-1.9.73-2.7c.21-.81.39-1.44.51-1.88-.34.22-.67.46-1,.73-.29.23-.59.5-.92.79-.32.3-.64.6-.94.93-.23-.2-.41-.41-.54-.65-.07-.11-.13-.22-.19-.35-.11-.27-.16-.55-.16-.83s.22-.58.67-.89c.23-.16.59-.39,1.06-.7.47-.3,1.06-.6,1.76-.9.7-.3,1.52-.55,2.45-.77s1.96-.32,3.09-.32,2.04.22,2.73.67c.69.45,1.22,1,1.59,1.64.37.65.61,1.33.71,2.04s.13,1.35.08,1.88c-.11,1-.43,2.05-.97,3.15-.54,1.09-1.28,2.1-2.23,3.03-.95.92-2.11,1.71-3.47,2.35-1.36.65-2.92,1.01-4.68,1.1-.14.68-.29,1.38-.43,2.1-.14.72-.3,1.42-.46,2.11s-.33,1.34-.5,1.94c-.17.6-.35,1.12-.52,1.55-.18.47-.41.84-.7,1.12-.29.28-.75.42-1.37.42-.32,0-.62-.08-.9-.24-.28-.16-.53-.39-.77-.67Zm6.38-12.27c-.05.29-.12.66-.2,1.12-.08.46-.17.97-.28,1.55.48-.07,1.02-.2,1.61-.39s1.18-.44,1.78-.77c.59-.32,1.17-.71,1.74-1.17s1.08-.99,1.55-1.59c.47-.6.86-1.28,1.17-2.04.31-.76.52-1.61.61-2.54.09-.9.04-1.65-.15-2.25-.19-.6-.46-1.08-.82-1.45-.36-.37-.77-.63-1.24-.78-.47-.15-.93-.23-1.4-.23s-.89.06-1.32.19-.86.29-1.29.48c.05.02.12.06.19.13.11.11.19.26.24.46-.43,1.74-.78,3.19-1.06,4.36-.28,1.17-.5,2.12-.66,2.85-.2.86-.35,1.55-.46,2.07Z"/>
  <path class="cls-1" d="m113.69,51.03c-.18.68-.42,1.32-.73,1.91-.31.59-.67,1.1-1.09,1.53-.42.43-.9.77-1.43,1.01-.53.24-1.11.36-1.74.36-.74,0-1.31-.16-1.74-.47-.42-.31-.74-.7-.94-1.17-.21-.47-.33-.98-.38-1.53-.04-.56-.07-1.08-.07-1.56,0-.34.04-.72.12-1.13.08-.41.19-.83.34-1.26.14-.43.33-.86.55-1.29.22-.43.49-.82.79-1.18.11-.3.27-.57.5-.81.22-.23.48-.43.78-.58.3-.15.61-.27.96-.35.34-.08.67-.12,1-.12.05,0,.1,0,.15.03.04.02.09.04.15.05.23.02.52.11.87.27.35.16.69.4,1.02.73s.61.73.85,1.22c.23.49.35,1.09.35,1.79,0,.14,0,.32-.03.52-.02.21-.04.38-.05.52.41-.16.84-.36,1.29-.59.45-.23.88-.48,1.3-.74.42-.26.81-.53,1.17-.79s.65-.51.86-.73c.18-.16.33-.25.46-.27.12-.02.22.02.27.11.05.09.06.22.03.38-.04.16-.13.34-.3.54-.09.11-.32.32-.69.65-.37.32-.8.67-1.3,1.05-.5.38-1.05.74-1.64,1.1-.59.36-1.16.63-1.7.81Zm-6.27.65c0,.32.02.64.05.96.04.31.11.59.21.83s.25.44.43.59c.18.15.41.23.7.23.32,0,.62-.08.89-.23.27-.15.51-.35.73-.59s.41-.52.58-.83c.17-.31.32-.64.44-.98-.13.02-.25.03-.36.04-.12,0-.25.01-.39.01-.68,0-1.27-.2-1.76-.6-.49-.4-.87-.92-1.14-1.55-.11.38-.2.74-.27,1.1-.07.36-.11.7-.11,1.02Zm1.72-4.73c-.05.16-.08.33-.08.51,0,.29.02.59.05.9s.12.6.27.85c.14.25.37.46.69.63s.75.26,1.3.26c.09,0,.18,0,.27-.01.09,0,.18-.02.27-.04.05-.23.1-.44.15-.63.04-.19.07-.35.07-.5.04-.34.04-.69,0-1.05-.04-.36-.1-.69-.2-.98s-.22-.54-.38-.73-.34-.28-.55-.28c-.34,0-.67.09-.98.28s-.61.45-.87.79Z"/>
  <path class="cls-1" d="m115.54,55.17c-.12.2-.26.33-.42.39-.15.06-.29.07-.4.03-.12-.04-.19-.14-.23-.28s0-.32.11-.54l.36-.73c.19-.38.41-.83.67-1.36s.54-1.1.85-1.72c.3-.62.6-1.21.88-1.76.28-.56.53-1.05.77-1.49.23-.44.4-.76.51-.96-.2-.18-.33-.31-.4-.39-.07-.08-.13-.26-.16-.52-.04-.23.02-.54.16-.92.14-.38.33-.74.57-1.09.23-.35.49-.65.78-.9.29-.25.57-.38.83-.38.5,0,.86.16,1.06.48.21.32.33.66.36,1,.04.23.02.53-.05.89-.07.36-.21.68-.4.97.05.04.13.08.22.12.09.04.23.07.43.07.29,0,.49-.02.61-.05.12-.04.3-.05.55-.05.3,0,.56.08.75.23.2.15.36.34.48.56.13.22.22.47.28.73.06.26.1.5.12.71.05.45-.06.92-.35,1.4s-.64,1.01-1.05,1.59c-.25.36-.5.76-.75,1.21-.25.45-.36.85-.32,1.21.04.23.1.42.19.57s.34.21.75.21c.3,0,.64-.11,1.01-.34.37-.22.74-.51,1.13-.86.39-.35.77-.73,1.14-1.16.38-.42.73-.83,1.05-1.24.32-.4.6-.77.82-1.09.22-.32.39-.56.5-.7.09-.14.21-.24.35-.3.14-.05.27-.05.38,0,.11.05.17.16.2.32s-.04.38-.2.65c-.11.18-.29.47-.55.86-.26.39-.57.83-.94,1.32-.37.48-.78.98-1.22,1.49-.45.51-.92.98-1.41,1.4-.49.42-.99.77-1.48,1.04-.49.27-.96.4-1.41.4s-.85-.09-1.16-.27c-.3-.18-.55-.4-.74-.66s-.32-.55-.4-.86c-.08-.31-.11-.61-.09-.87.02-.22.08-.44.17-.69s.22-.49.35-.75c.13-.26.28-.52.43-.78s.29-.52.42-.77c.3-.52.55-.96.74-1.33.19-.37.28-.68.28-.93,0-.16-.04-.3-.11-.43-.07-.13-.19-.19-.35-.19-.11,0-.18,0-.23.01-.04,0-.09.01-.13.01s-.11,0-.19.01c-.08,0-.2.01-.36.01-.23,0-.43-.04-.59-.11s-.31-.13-.46-.16c-.07.13-.23.4-.48.81-.25.41-.54.9-.88,1.45s-.68,1.14-1.05,1.75c-.37.61-.71,1.18-1.04,1.71-.32.53-.6.98-.82,1.34-.22.37-.36.59-.42.66Z"/>
  <path class="cls-1" d="m137.68,48.5c.07-.11.17-.17.28-.2.12-.03.21-.01.28.04.07.05.11.14.12.27,0,.13-.04.3-.15.51-.36.68-.83,1.42-1.41,2.21s-1.2,1.53-1.84,2.22-1.27,1.26-1.88,1.71c-.61.45-1.12.67-1.53.67-.59,0-1.08-.12-1.48-.35-.39-.23-.7-.52-.93-.86-.22-.34-.38-.71-.47-1.12-.09-.4-.12-.78-.08-1.12.02-.29.08-.8.19-1.55.11-.74.25-1.6.43-2.58.18-.98.38-2.03.6-3.15.22-1.12.46-2.2.71-3.24-.31.04-.61.07-.92.11-.31.04-.58.05-.83.05-.57,0-1.12-.07-1.63-.2-.51-.13-.89-.26-1.14-.39-.14-.07-.21-.17-.19-.31.02-.13.07-.27.16-.4.09-.13.2-.25.34-.35.13-.1.26-.15.36-.15.34.04.71.07,1.1.09.39.03.82.03,1.29.01.34-.02.67-.04.98-.08.31-.04.62-.08.93-.13.23-.86.46-1.61.69-2.25.22-.64.43-1.08.61-1.33.05-.09.17-.17.36-.23s.39-.11.61-.13.42-.03.62,0c.2.03.34.09.43.2.09.14.13.51.11,1.1-.02.59-.12,1.35-.3,2.26.75,0,1.42.04,2,.12.58.08,1.08.17,1.49.27.41.1.74.2,1,.3s.44.17.57.2c.12.04.19.13.2.27s-.02.29-.08.44c-.06.15-.17.28-.31.39s-.31.14-.48.11c-.18-.02-.38-.05-.61-.11s-.49-.1-.81-.13c-.31-.04-.69-.07-1.12-.11-.43-.04-.93-.05-1.51-.05-.11,0-.23,0-.36.01-.13,0-.27.01-.42.01-.07.29-.14.57-.2.85-.06.28-.15.57-.26.87-.23.72-.5,1.5-.81,2.34-.27.74-.59,1.58-.97,2.53-.38.95-.8,1.96-1.26,3.04-.11.77-.09,1.36.04,1.76.13.4.3.7.5.88.23.2.52.3.86.32.27.04.6-.06.98-.28.39-.22.79-.52,1.2-.9.41-.38.83-.79,1.25-1.24.42-.45.81-.89,1.17-1.32.36-.43.67-.82.94-1.17.27-.35.46-.6.57-.74Z"/>
  <path class="cls-1" d="m136.61,52.51c-.2-.2-.34-.39-.42-.58-.08-.19-.14-.37-.17-.55-.04-.2-.04-.39,0-.59.07-.25.18-.48.32-.7.13-.2.3-.4.51-.61s.5-.4.86-.58c.23-.57.44-1.18.63-1.82s.35-1.21.5-1.74c.16-.61.3-1.22.43-1.83.45-1.52.68-2.77.7-3.73.02-.96,0-1.59-.05-1.9-.02-.13-.04-.25-.05-.38-.04-.11-.07-.23-.09-.36-.03-.13-.06-.26-.09-.39.2-.11.37-.2.52-.27s.28-.13.39-.16c.13-.05.24-.09.35-.11.41-.09.8-.14,1.17-.15.37,0,.57.06.61.2.02.09.04.25.07.48.03.23.04.52.04.86s-.03.72-.08,1.14c-.05.42-.15.87-.3,1.33-.13.41-.3.99-.51,1.72-.2.63-.46,1.47-.78,2.52-.32,1.05-.75,2.39-1.26,4.02.54-.18,1.13-.35,1.78-.51s1.3-.3,1.98-.4c.67-.11,1.34-.19,2.02-.24.67-.05,1.3-.06,1.87-.03.11,0,.18.05.23.15.04.1.04.2,0,.31-.04.11-.14.21-.3.31-.15.1-.37.16-.66.17-.36.04-.75.08-1.18.12-.43.04-.87.11-1.33.19-.46.08-.91.18-1.36.3-.45.12-.87.26-1.26.42-.3.11-.61.22-.91.32-.25.09-.52.19-.79.31-.28.12-.51.22-.69.31l-.62,1.96c1.04.74,1.84,1.49,2.41,2.26.57.77.97,1.48,1.22,2.12.3.75.47,1.49.51,2.21,0,.79-.12,1.58-.35,2.38s-.54,1.56-.93,2.29c-.39.73-.83,1.4-1.35,2.03-.51.63-1.05,1.17-1.61,1.61-.56.45-1.14.79-1.72,1.02-.58.23-1.13.32-1.65.27-.38-.04-.69-.16-.94-.36s-.44-.47-.57-.78c-.12-.31-.2-.66-.21-1.05s.02-.77.11-1.14c.07-.38.22-1.08.46-2.1.2-.86.5-2.11.92-3.75.41-1.64.97-3.82,1.67-6.55Zm1.59,1.26c-.25.9-.47,1.72-.66,2.47-.19.75-.34,1.42-.47,1.99-.16.66-.29,1.26-.38,1.8-.16.68-.33,1.35-.5,2.02-.17.66-.3,1.26-.4,1.79-.1.53-.14.96-.12,1.28.02.32.13.48.35.48.52.04,1.06-.17,1.63-.61.56-.44,1.08-1,1.55-1.67.47-.67.85-1.4,1.16-2.18s.46-1.5.46-2.17c0-.74-.12-1.46-.35-2.18-.16-.38-.35-.75-.56-1.1-.2-.3-.44-.63-.71-.98-.28-.35-.61-.67-.98-.96Z"/>
  <path class="cls-1" d="m152.99,51.03c-.18.68-.42,1.32-.73,1.91-.31.59-.67,1.1-1.09,1.53-.42.43-.9.77-1.43,1.01-.53.24-1.11.36-1.74.36-.74,0-1.31-.16-1.74-.47-.42-.31-.74-.7-.94-1.17-.21-.47-.33-.98-.38-1.53-.04-.56-.07-1.08-.07-1.56,0-.34.04-.72.12-1.13.08-.41.19-.83.34-1.26.14-.43.33-.86.55-1.29.22-.43.49-.82.79-1.18.11-.3.27-.57.5-.81.22-.23.48-.43.78-.58.3-.15.61-.27.96-.35.34-.08.67-.12,1-.12.05,0,.1,0,.15.03.04.02.09.04.15.05.23.02.52.11.87.27.35.16.69.4,1.02.73s.61.73.85,1.22c.23.49.35,1.09.35,1.79,0,.14,0,.32-.03.52-.02.21-.04.38-.05.52.41-.16.84-.36,1.29-.59.45-.23.88-.48,1.3-.74.42-.26.81-.53,1.17-.79s.65-.51.86-.73c.18-.16.33-.25.46-.27.12-.02.22.02.27.11.05.09.06.22.03.38-.04.16-.13.34-.3.54-.09.11-.32.32-.69.65-.37.32-.8.67-1.3,1.05-.5.38-1.05.74-1.64,1.1-.59.36-1.16.63-1.7.81Zm-6.27.65c0,.32.02.64.05.96.04.31.11.59.21.83s.25.44.43.59c.18.15.41.23.7.23.32,0,.62-.08.89-.23.27-.15.51-.35.73-.59s.41-.52.58-.83c.17-.31.32-.64.44-.98-.13.02-.25.03-.36.04-.12,0-.25.01-.39.01-.68,0-1.27-.2-1.76-.6-.49-.4-.87-.92-1.14-1.55-.11.38-.2.74-.27,1.1-.07.36-.11.7-.11,1.02Zm1.72-4.73c-.05.16-.08.33-.08.51,0,.29.02.59.05.9s.12.6.27.85c.14.25.37.46.69.63s.75.26,1.3.26c.09,0,.18,0,.27-.01.09,0,.18-.02.27-.04.05-.23.1-.44.15-.63.04-.19.07-.35.07-.5.04-.34.04-.69,0-1.05-.04-.36-.1-.69-.2-.98s-.22-.54-.38-.73-.34-.28-.55-.28c-.34,0-.67.09-.98.28s-.61.45-.87.79Z"/>
  <path class="cls-1" d="m155.47,54.88c.79-3.32,1.42-5.98,1.9-7.99.47-2.01.84-3.54,1.09-4.6.29-1.26.48-2.13.59-2.61.05-.34.1-.67.13-1,.04-.29.05-.58.05-.89s-.03-.58-.08-.83c.14-.09.3-.16.47-.22.17-.05.34-.1.5-.13.2-.05.39-.1.59-.13.2-.04.38-.05.54-.05.14,0,.28.01.4.04.12.03.21.09.24.17.11.09.16.27.15.54,0,.27-.03.55-.07.83-.07.34-.15.71-.24,1.1-.22.77-.51,1.88-.89,3.34-.32,1.24-.76,2.92-1.31,5.06-.55,2.13-1.23,4.83-2.06,8.07-.09.09-.2.15-.32.19-.12.04-.24.05-.35.05-.12,0-.26,0-.4-.03-.13-.04-.25-.09-.38-.16-.11-.07-.21-.17-.32-.28-.11-.12-.19-.27-.24-.47Z"/>
  <path class="cls-1" d="m164.1,45.19c.09-.11.26-.2.51-.27.25-.07.51-.13.78-.17.27-.04.52-.07.74-.08.22,0,.35,0,.39.01.02.02-.03.21-.13.56-.11.36-.24.78-.4,1.26-.16.48-.33.98-.51,1.49-.18.51-.31.93-.4,1.25-.09.32-.2.69-.32,1.09-.13.4-.24.8-.34,1.18-.1.39-.17.75-.2,1.09s0,.6.08.78c.09.21.19.36.3.44.11.08.22.12.35.12.36,0,.81-.2,1.36-.59.55-.39,1.1-.86,1.67-1.41.57-.55,1.09-1.1,1.57-1.67.48-.56.84-1.02,1.08-1.36.14-.18.29-.3.44-.35s.28-.04.38.03c.1.07.15.19.16.35,0,.16-.05.35-.17.57-.29.5-.71,1.1-1.26,1.79-.56.69-1.15,1.35-1.78,1.99s-1.24,1.18-1.84,1.63-1.09.68-1.47.7c-.31.02-.61-.03-.9-.15-.3-.12-.57-.28-.81-.48-.24-.21-.44-.45-.6-.73-.16-.28-.25-.57-.27-.87-.05-.45-.05-1.06,0-1.84s.15-1.58.3-2.39c.14-.82.33-1.59.55-2.33.22-.74.48-1.28.77-1.64Zm3.71-5.73c-.05.2-.16.39-.31.58s-.32.34-.51.46c-.19.12-.38.19-.58.23-.2.04-.36,0-.48-.11-.38-.29-.57-.6-.59-.93s.06-.65.24-.94.4-.55.67-.75c.27-.21.5-.33.7-.36s.36,0,.5.12.24.27.31.46c.07.19.11.4.12.63,0,.23-.01.44-.07.62Z"/>
  <path class="cls-1" d="m177.42,51.03c-.18.68-.42,1.32-.73,1.91-.31.59-.67,1.1-1.09,1.53-.42.43-.9.77-1.43,1.01-.53.24-1.11.36-1.74.36-.74,0-1.31-.16-1.74-.47-.42-.31-.74-.7-.94-1.17-.21-.47-.33-.98-.38-1.53-.04-.56-.07-1.08-.07-1.56,0-.34.04-.72.12-1.13.08-.41.19-.83.34-1.26.14-.43.33-.86.55-1.29.22-.43.49-.82.79-1.18.11-.3.27-.57.5-.81.22-.23.48-.43.78-.58.3-.15.61-.27.96-.35.34-.08.67-.12,1-.12.05,0,.1,0,.15.03.04.02.09.04.15.05.23.02.52.11.87.27.35.16.69.4,1.02.73s.61.73.85,1.22c.23.49.35,1.09.35,1.79,0,.14,0,.32-.03.52-.02.21-.04.38-.05.52.41-.16.84-.36,1.29-.59.45-.23.88-.48,1.3-.74.42-.26.81-.53,1.17-.79s.65-.51.86-.73c.18-.16.33-.25.46-.27.12-.02.22.02.27.11.05.09.06.22.03.38-.04.16-.13.34-.3.54-.09.11-.32.32-.69.65-.37.32-.8.67-1.3,1.05-.5.38-1.05.74-1.64,1.1-.59.36-1.16.63-1.7.81Zm-6.27.65c0,.32.02.64.05.96.04.31.11.59.21.83s.25.44.43.59c.18.15.41.23.7.23.32,0,.62-.08.89-.23.27-.15.51-.35.73-.59s.41-.52.58-.83c.17-.31.32-.64.44-.98-.13.02-.25.03-.36.04-.12,0-.25.01-.39.01-.68,0-1.27-.2-1.76-.6-.49-.4-.87-.92-1.14-1.55-.11.38-.2.74-.27,1.1-.07.36-.11.7-.11,1.02Zm1.72-4.73c-.05.16-.08.33-.08.51,0,.29.02.59.05.9s.12.6.27.85c.14.25.37.46.69.63s.75.26,1.3.26c.09,0,.18,0,.27-.01.09,0,.18-.02.27-.04.05-.23.1-.44.15-.63.04-.19.07-.35.07-.5.04-.34.04-.69,0-1.05-.04-.36-.1-.69-.2-.98s-.22-.54-.38-.73-.34-.28-.55-.28c-.34,0-.67.09-.98.28s-.61.45-.87.79Z"/>
</svg>