<svg width="150" height="122" viewBox="0 0 150 122" fill="none" xmlns="http://www.w3.org/2000/svg">
<g clip-path="url(#clip0_27_3)">
<path d="M31.8078 110.117C31.1069 109.468 25.111 103.913 18.7518 97.7349C15.5733 94.6462 12.3026 91.4003 9.56219 88.5379C8.19083 87.108 6.95379 85.7718 5.92702 84.6034C4.90141 83.4362 4.08607 82.4297 3.5721 81.6813C2.88291 80.6795 2.29768 79.4595 1.88767 78.1245C1.47767 76.7908 1.24171 75.342 1.24171 73.8874C1.24171 72.3905 1.48935 70.8878 2.04303 69.4778C2.45888 68.4197 3.04528 67.4143 3.83376 66.4947C5.01589 65.1175 6.65475 63.9291 8.88235 63.0763C11.1111 62.2247 13.9298 61.712 17.4458 61.712C17.836 61.712 18.1513 61.3929 18.1513 61.0011C18.1513 60.6093 17.836 60.2903 17.4458 60.2903C15.884 60.2903 14.4578 60.1894 13.1623 60.0028C11.8657 59.8152 10.6964 59.543 9.64747 59.1981C8.07401 58.682 6.76806 58.0063 5.69223 57.2191C4.07906 56.0378 2.97636 54.6079 2.26498 53.05C1.55593 51.491 1.24171 49.7994 1.24171 48.1161C1.24171 46.6603 1.4765 45.2127 1.88767 43.8789C2.29768 42.5439 2.88408 41.3239 3.5721 40.3221C3.83726 39.9362 4.18302 39.4799 4.59653 38.9696C5.37216 38.0135 6.38492 36.8651 7.55771 35.5946C9.61125 33.3705 12.1613 30.7698 14.8269 28.1221C18.8277 24.1513 23.0913 20.076 26.3539 16.9932C27.9845 15.4517 29.3664 14.159 30.3395 13.2522C30.8266 12.7982 31.2097 12.4416 31.4737 12.1976C31.6045 12.0756 31.705 11.9829 31.7739 11.9184C31.8417 11.8551 31.8779 11.8234 31.8779 11.8234C32.1652 11.5583 32.1839 11.109 31.9211 10.8192C31.6583 10.5283 31.2109 10.5096 30.9235 10.7747C30.9212 10.777 24.9381 16.3022 18.3885 22.6474C15.1142 25.8206 11.6987 29.1978 8.81577 32.1974C7.37431 33.6966 6.06602 35.1019 4.97267 36.3407C4.42599 36.9613 3.93304 37.5396 3.50318 38.0698C3.07331 38.6001 2.70769 39.081 2.41099 39.5115C1.63186 40.6471 0.989394 41.9926 0.538501 43.4578C0.525652 43.5 0.512803 43.5434 0.499953 43.588C0.487104 43.5446 0.474255 43.5012 0.461406 43.4578C0.324736 43.0155 0.171713 42.585 0.00233623 42.1674V53.68C0.00817681 53.6682 0.0128493 53.6553 0.0186898 53.6436C0.203252 53.2389 0.362116 52.8271 0.499953 52.4095C0.57004 52.6242 0.647136 52.8365 0.730072 53.0488C1.20082 54.2466 1.86898 55.395 2.76493 56.439C4.10826 58.0063 5.95973 59.3318 8.3824 60.2586C9.137 60.546 9.9465 60.797 10.8132 61.0047C10.2561 61.1372 9.72106 61.2874 9.21059 61.4551C7.51098 62.0123 6.06836 62.7537 4.86286 63.6359C3.05462 64.9568 1.78605 66.5955 0.982385 68.3645C0.797823 68.7693 0.638959 69.181 0.501122 69.5986C0.431035 69.3839 0.353939 69.1716 0.271003 68.9593C0.18573 68.7423 0.0969536 68.5323 0 68.3247V79.8361C0.169377 79.4184 0.323568 78.9879 0.459069 78.5457C0.471919 78.5034 0.484768 78.4589 0.497617 78.4155C0.510466 78.4589 0.522148 78.5023 0.536165 78.5457C0.987058 80.0108 1.62952 81.3564 2.40865 82.4919C2.70419 82.9213 3.07098 83.4034 3.50084 83.9336C4.30684 84.9272 5.33478 86.0933 6.52159 87.3789C8.5985 89.6277 11.159 92.239 13.834 94.8948C21.8601 102.861 30.9177 111.225 30.9212 111.229C31.2085 111.494 31.6559 111.475 31.9188 111.185C32.1828 110.896 32.1629 110.445 31.8755 110.18C31.8755 110.18 31.8533 110.158 31.8078 110.117Z" fill="#6699CC" fill-opacity="0.25"/>
<path d="M106.567 110.117C105.866 109.468 99.8704 103.913 93.5112 97.7349C90.3327 94.6462 87.062 91.4003 84.3216 88.5379C82.9502 87.108 81.7132 85.7718 80.6864 84.6034C79.6608 83.4362 78.8455 82.4297 78.3315 81.6813C77.6423 80.6795 77.0571 79.4595 76.6471 78.1245C76.2371 76.7908 76.0011 75.342 76.0011 73.8874C76.0011 72.3905 76.2488 70.8878 76.8024 69.4778C77.2183 68.4197 77.8047 67.4143 78.5932 66.4947C79.7753 65.1175 81.4142 63.9291 83.6418 63.0763C85.8705 62.2247 88.6892 61.712 92.2052 61.712C92.5954 61.712 92.9108 61.3929 92.9108 61.0011C92.9108 60.6093 92.5942 60.2903 92.2052 60.2903C90.6434 60.2903 89.2172 60.1894 87.9217 60.0028C86.6251 59.8152 85.4558 59.543 84.4069 59.1981C82.8334 58.682 81.5275 58.0063 80.4516 57.2191C78.8385 56.0378 77.7358 54.6079 77.0244 53.05C76.3153 51.491 76.0011 49.7994 76.0011 48.1161C76.0011 46.6603 76.2359 45.2127 76.6471 43.8789C77.0571 42.5439 77.6435 41.3239 78.3315 40.3221C78.5967 39.9362 78.9424 39.4799 79.3559 38.9696C80.1316 38.0135 81.1443 36.8651 82.3171 35.5946C84.3707 33.3705 86.9207 30.7698 89.5863 28.1221C93.5871 24.1513 97.8507 20.076 101.113 16.9932C102.744 15.4517 104.126 14.159 105.099 13.2522C105.586 12.7982 105.969 12.4416 106.233 12.1976C106.364 12.0756 106.464 11.9829 106.533 11.9184C106.601 11.8551 106.637 11.8234 106.637 11.8234C106.925 11.5583 106.943 11.109 106.681 10.8192C106.418 10.5283 105.97 10.5096 105.683 10.7747C105.681 10.777 99.6963 16.3022 93.1479 22.6474C89.8737 25.8206 86.4581 29.1978 83.5752 32.1974C82.1337 33.6966 80.8254 35.1019 79.7321 36.3407C79.1854 36.9613 78.6913 37.5396 78.2626 38.0698C77.8327 38.6001 77.4671 39.081 77.1704 39.5115C76.3913 40.6471 75.7488 41.9926 75.2979 43.4578C75.2851 43.5 75.2722 43.5434 75.2594 43.588C75.2465 43.5446 75.2337 43.5012 75.2196 43.4578C74.7688 41.9926 74.1263 40.6471 73.3472 39.5115C73.0516 39.081 72.6848 38.6001 72.255 38.0698C71.449 37.0762 70.421 35.909 69.2342 34.6245C67.1573 32.3757 64.5968 29.7644 61.9206 27.1086C53.8957 19.1422 44.837 10.7782 44.8335 10.7747C44.5461 10.5096 44.0999 10.5283 43.8359 10.8192C43.5731 11.109 43.5929 11.5583 43.8803 11.8234C43.8803 11.8234 43.9025 11.8445 43.948 11.8867C44.6489 12.5355 50.6448 18.09 57.0041 24.2697C60.1825 27.3585 63.4532 30.6032 66.1948 33.4655C67.565 34.8955 68.8032 36.2304 69.83 37.4C70.8556 38.5672 71.6709 39.5737 72.1849 40.3221C72.8741 41.3239 73.4593 42.5439 73.8705 43.8789C74.2805 45.2127 74.5164 46.6614 74.5164 48.1161C74.5164 49.6129 74.2688 51.1156 73.7151 52.5257C73.2993 53.5838 72.7129 54.5891 71.9256 55.5088C70.7423 56.886 69.1046 58.0743 66.8758 58.9271C64.647 59.7788 61.8284 60.2914 58.3135 60.2914C57.9234 60.2914 57.608 60.6105 57.608 61.0023C57.608 61.3941 57.9234 61.7132 58.3135 61.7132C59.8753 61.7132 61.3016 61.8141 62.597 62.0006C63.8936 62.1883 65.0617 62.4604 66.1107 62.8053C67.6853 63.3215 68.9901 63.9972 70.0659 64.7843C71.6791 65.9656 72.7818 67.3956 73.4932 68.9534C74.2034 70.5124 74.5164 72.204 74.5164 73.8874C74.5176 75.3432 74.2816 76.7908 73.8705 78.1245C73.4605 79.4595 72.8741 80.6795 72.1849 81.6813C71.9197 82.0672 71.574 82.5236 71.1604 83.0339C70.3848 83.9899 69.3732 85.1384 68.1993 86.4088C66.1457 88.633 63.5957 91.2337 60.9301 93.8813C56.9293 97.8522 52.6668 101.927 49.4043 105.01C47.7724 106.551 46.3917 107.844 45.4175 108.751C44.9316 109.205 44.5473 109.562 44.2833 109.806C44.1524 109.928 44.052 110.021 43.9831 110.085C43.9153 110.148 43.8803 110.18 43.8803 110.18C43.5929 110.445 43.5731 110.894 43.8359 111.185C44.0999 111.475 44.5461 111.494 44.8335 111.229C44.8358 111.226 50.82 105.701 57.3685 99.3561C60.6439 96.1829 64.0583 92.8056 66.9412 89.806C68.3838 88.3068 69.691 86.9015 70.7843 85.6627C71.331 85.0422 71.8239 84.4639 72.2538 83.9336C72.6837 83.4034 73.0493 82.9213 73.346 82.4919C74.1251 81.3575 74.7676 80.0108 75.2185 78.5457C75.2313 78.5034 75.2442 78.4589 75.2582 78.4155C75.271 78.4589 75.2827 78.5023 75.2967 78.5457C75.7476 80.0108 76.3901 81.3564 77.1692 82.4919C77.4648 82.9213 77.8316 83.4034 78.2614 83.9336C79.0674 84.9272 80.0965 86.0933 81.2822 87.3789C83.3591 89.6277 85.9196 92.239 88.5957 94.8948C96.6219 102.861 105.679 111.225 105.683 111.229C105.97 111.494 106.418 111.475 106.681 111.185C106.945 110.896 106.925 110.445 106.637 110.18C106.635 110.18 106.613 110.158 106.567 110.117ZM75.2582 69.5939C75.1869 69.3793 75.111 69.1669 75.0281 68.9546C74.5585 67.7569 73.8892 66.6084 72.9932 65.5644C71.6499 63.9972 69.7973 62.6716 67.3758 61.7449C66.6211 61.4575 65.8116 61.2064 64.9449 60.9988C65.5021 60.8662 66.0371 60.7161 66.5476 60.5483C68.2472 59.9911 69.6898 59.2497 70.8953 58.3676C72.7035 57.0467 73.9721 55.4079 74.7758 53.6389C74.9603 53.2342 75.1204 52.8224 75.257 52.4048C75.3283 52.6195 75.4042 52.8318 75.4871 53.0442C75.9567 54.2419 76.6261 55.3903 77.522 56.4343C78.8653 58.0016 80.718 59.3272 83.1395 60.2539C83.8941 60.5413 84.7036 60.7923 85.5703 61C85.0131 61.1325 84.4781 61.2827 83.9677 61.4504C82.2681 62.0076 80.8254 62.749 79.6199 63.6312C77.8117 64.9521 76.5431 66.5908 75.7395 68.3598C75.5549 68.7646 75.396 69.1763 75.2582 69.5939Z" fill="#6699CC" fill-opacity="0.25"/>
<path d="M148.105 39.5081C147.81 39.0776 147.443 38.5966 147.013 38.0664C146.207 37.0728 145.178 35.9056 143.992 34.6211C141.916 32.3723 139.355 29.761 136.68 27.1052C128.655 19.1388 119.596 10.7748 119.593 10.7713C119.305 10.5061 118.859 10.5249 118.595 10.8158C118.332 11.1056 118.352 11.5549 118.64 11.82C118.64 11.82 118.662 11.8411 118.707 11.8833C119.408 12.532 125.404 18.0866 131.763 24.2663C134.942 27.355 138.213 30.5998 140.953 33.4621C142.324 34.8921 143.561 36.227 144.588 37.3966C145.614 38.5638 146.429 39.5703 146.943 40.3187C147.632 41.3205 148.218 42.5405 148.628 43.8755C149.038 45.2093 149.273 46.658 149.273 48.1126C149.273 49.6095 149.026 51.1122 148.472 52.5222C148.056 53.5803 147.47 54.5857 146.683 55.5054C145.499 56.8826 143.862 58.0709 141.633 58.9237C139.404 59.7754 136.585 60.288 133.071 60.288C132.68 60.288 132.365 60.6071 132.365 60.9989C132.365 61.3907 132.68 61.7098 133.071 61.7098C134.632 61.7098 136.059 61.8107 137.354 61.9972C138.651 62.1849 139.819 62.457 140.868 62.8019C142.442 63.3181 143.747 63.9938 144.823 64.7809C146.436 65.9622 147.539 67.3922 148.25 68.95C148.959 70.509 149.273 72.2006 149.273 73.884V73.8922C149.273 75.3444 149.038 76.7909 148.628 78.1223C148.218 79.4573 147.631 80.6773 146.943 81.6791C146.678 82.065 146.332 82.5213 145.919 83.0316C145.143 83.9877 144.131 85.1361 142.957 86.4066C140.904 88.6307 138.354 91.2314 135.688 93.8791C131.688 97.8499 127.425 101.925 124.163 105.008C122.531 106.548 121.15 107.842 120.176 108.749C119.69 109.203 119.305 109.56 119.041 109.804C118.911 109.926 118.81 110.018 118.741 110.083C118.674 110.146 118.638 110.178 118.638 110.178C118.351 110.443 118.331 110.892 118.594 111.183C118.858 111.473 119.304 111.492 119.592 111.227C119.594 111.224 125.577 105.699 132.127 99.3538C135.402 96.1806 138.817 92.8034 141.699 89.8038C143.142 88.3046 144.449 86.8993 145.543 85.6605C146.089 85.0399 146.583 84.4616 147.012 83.9314C147.442 83.4011 147.808 82.919 148.104 82.4897C148.649 81.6967 149.126 80.8016 149.518 79.8338V68.3224C149.073 67.3511 148.489 66.422 147.751 65.561C146.408 63.9938 144.555 62.6682 142.134 61.7414C141.379 61.454 140.57 61.203 139.703 60.9954C140.26 60.8628 140.795 60.7127 141.306 60.5449C143.005 59.9877 144.448 59.2463 145.654 58.3642C147.45 57.0527 148.713 55.4268 149.518 53.6718V42.1593C149.127 41.1962 148.65 40.3011 148.105 39.5081Z" fill="#6699CC" fill-opacity="0.25"/>
<path d="M143.517 49.1789C143.517 49.1789 143.494 49.1578 143.448 49.1167C142.747 48.468 136.751 42.9123 130.392 36.7337C127.214 33.645 123.943 30.4003 121.203 27.538C119.831 26.1068 118.594 24.7719 117.567 23.6035C116.542 22.4351 115.725 21.4298 115.211 20.6813C114.522 19.6795 113.937 18.4584 113.527 17.1246C113.117 15.7896 112.881 14.342 112.881 12.8863C112.881 11.3906 113.128 9.88669 113.682 8.47783C114.098 7.41971 114.684 6.41438 115.473 5.49469C116.655 4.11633 118.294 2.92917 120.523 2.07517C122.75 1.22352 125.569 0.710885 129.085 0.712058C129.475 0.712058 129.792 0.392981 129.792 0.00117308H122.452C121.895 0.134904 121.36 0.285058 120.851 0.452808C119.151 1.01002 117.708 1.7514 116.502 2.63238C114.694 3.95444 113.425 5.59206 112.622 7.36106C112.436 7.7646 112.277 8.17635 112.139 8.59279C112.068 8.37812 111.992 8.16462 111.909 7.95464C111.439 6.75692 110.77 5.60848 109.874 4.56444C108.531 2.99721 106.679 1.67163 104.257 0.746077C103.503 0.456327 102.696 0.207635 101.829 0H94.4877C94.4877 0.392981 94.8031 0.710885 95.1944 0.710885H95.2038C98.3238 0.710885 100.896 1.1156 102.992 1.80302C104.566 2.31917 105.871 2.99487 106.947 3.782C108.56 4.96329 109.663 6.39327 110.374 7.95229C111.083 9.51013 111.396 11.2029 111.396 12.8863C111.397 14.342 111.161 15.7896 110.75 17.1246C110.34 18.4584 109.754 19.6795 109.066 20.6813C108.801 21.0673 108.455 21.5236 108.041 22.0327C107.266 22.99 106.254 24.1384 105.08 25.4088C103.027 27.633 100.477 30.2337 97.811 32.8802C93.8114 36.851 89.5477 40.9275 86.2852 44.0092C84.6533 45.5506 83.2726 46.8433 82.2984 47.7501C81.8125 48.2041 81.4282 48.5607 81.1653 48.8059C81.0333 48.9267 80.9329 49.0205 80.8651 49.0839C80.7974 49.1472 80.7623 49.1789 80.7623 49.1789C80.475 49.444 80.4551 49.8945 80.7191 50.1842C80.9831 50.474 81.4282 50.4939 81.7167 50.2276C81.7167 50.2276 87.7021 44.7001 94.2506 38.3549C97.526 35.1818 100.942 31.8045 103.824 28.8061C105.266 27.3069 106.574 25.9015 107.666 24.6616C108.214 24.041 108.706 23.4627 109.136 22.9325C109.566 22.4023 109.931 21.9213 110.228 21.4908C111.008 20.3564 111.65 19.0097 112.101 17.5457C112.113 17.5023 112.126 17.4589 112.139 17.4155C112.152 17.4589 112.164 17.5023 112.178 17.5457C112.629 19.0109 113.271 20.3564 114.05 21.4908C114.346 21.9213 114.712 22.4023 115.142 22.9325C115.948 23.9273 116.976 25.0921 118.163 26.3778C120.24 28.6254 122.8 31.2379 125.475 33.8937C133.502 41.8601 142.559 50.2253 142.563 50.2276C142.85 50.4939 143.297 50.474 143.56 50.1842C143.823 49.8945 143.804 49.444 143.517 49.1789Z" fill="#8AB19E" fill-opacity="0.25"/>
<path d="M68.7576 49.1789C68.7576 49.1789 68.7343 49.1578 68.6887 49.1167C67.9878 48.468 61.9919 42.9123 55.6327 36.7337C52.4542 33.645 49.1835 30.4003 46.4431 27.538C45.0717 26.1068 43.8347 24.7719 42.8079 23.6035C41.7812 22.4351 40.9658 21.4298 40.4518 20.6813C39.7627 19.6795 39.1774 18.4584 38.7674 17.1246C38.3574 15.7896 38.1214 14.342 38.1214 12.8863C38.1214 11.3906 38.3691 9.88669 38.9228 8.47783C39.3386 7.41971 39.925 6.41438 40.7135 5.49469C41.8956 4.11633 43.5345 2.92917 45.7633 2.07517C47.9909 1.22352 50.8095 0.710885 54.3255 0.712058C54.7157 0.712058 55.0323 0.392981 55.0323 0.00117308H47.693C47.1358 0.134904 46.6008 0.285058 46.0915 0.452808C44.3919 1.01002 42.9481 1.7514 41.7426 2.63238C39.9344 3.95444 38.6658 5.59206 37.8621 7.36106C37.6764 7.7646 37.5175 8.17635 37.3797 8.59279C37.3096 8.37812 37.2325 8.16462 37.1496 7.95464C36.68 6.75692 36.0107 5.60848 35.1147 4.56444C33.7714 2.99721 31.9188 1.67163 29.4973 0.746077C28.7438 0.456327 27.9366 0.207635 27.0699 0H19.7283C19.7283 0.392981 20.0437 0.710885 20.435 0.710885H20.4455C23.5656 0.710885 26.1378 1.1156 28.2333 1.80302C29.808 2.31917 31.1128 2.99487 32.1886 3.782C33.8018 4.96329 34.9045 6.39327 35.6158 7.95229C36.3249 9.51013 36.6379 11.2029 36.6379 12.8863C36.6391 14.342 36.4031 15.7896 35.992 17.1246C35.582 18.4584 34.9956 19.6795 34.3076 20.6813C34.0424 21.0673 33.6966 21.5236 33.2831 22.0327C32.5075 22.99 31.4959 24.1384 30.3219 25.4088C28.2684 27.633 25.7184 30.2337 23.0528 32.8802C19.0531 36.851 14.7895 40.9275 11.527 44.0092C9.89511 45.5506 8.51439 46.8433 7.54018 47.7501C7.05425 48.2041 6.66994 48.5607 6.40711 48.8059C6.27512 48.9267 6.17466 49.0205 6.10691 49.0839C6.03916 49.1472 6.00411 49.1789 6.00411 49.1789C5.71676 49.444 5.6969 49.8945 5.96089 50.1842C6.22372 50.474 6.67111 50.4939 6.95846 50.2276C6.9608 50.2265 12.9439 44.7001 19.4923 38.3549C22.7677 35.1818 26.1833 31.8045 29.0662 28.8061C30.5077 27.3069 31.816 25.9015 32.9093 24.6616C33.456 24.041 33.9489 23.4627 34.3788 22.9325C34.8087 22.4023 35.1743 21.9213 35.471 21.4908C36.2513 20.3564 36.8926 19.0097 37.3435 17.5457C37.3563 17.5023 37.3692 17.4589 37.382 17.4155C37.3949 17.4589 37.4066 17.5023 37.4206 17.5457C37.8715 19.0109 38.5139 20.3564 39.2931 21.4908C39.5886 21.9213 39.9554 22.4023 40.3853 22.9325C41.1913 23.9273 42.2192 25.0921 43.4072 26.3778C45.4829 28.6254 48.0446 31.2379 50.7196 33.8937C58.7457 41.8601 67.8033 50.2253 67.8068 50.2276C68.0941 50.4939 68.5415 50.474 68.8043 50.1842C69.0637 49.8945 69.045 49.444 68.7576 49.1789Z" fill="#8AB19E" fill-opacity="0.25"/>
<path d="M143.56 71.8158C143.296 71.526 142.85 71.5072 142.563 71.7724C142.56 71.7735 136.576 77.2999 130.028 83.6451C126.753 86.8182 123.338 90.1955 120.455 93.1939C119.013 94.6931 117.705 96.0984 116.612 97.3384C116.065 97.9589 115.572 98.5373 115.142 99.0675C114.712 99.5977 114.347 100.08 114.05 100.509C113.271 101.644 112.629 102.99 112.178 104.454C112.165 104.498 112.152 104.541 112.139 104.584C112.126 104.541 112.113 104.498 112.101 104.454C111.65 102.989 111.008 101.644 110.228 100.509C109.933 100.079 109.566 99.5977 109.136 99.0675C108.33 98.0727 107.302 96.9079 106.115 95.6222C104.039 93.3746 101.478 90.7621 98.8027 88.1063C90.7778 80.1399 81.719 71.7747 81.7167 71.7724C81.4282 71.5072 80.9819 71.526 80.7191 71.8158C80.4551 72.1055 80.475 72.556 80.7623 72.8211C80.7623 72.8211 80.7857 72.8422 80.8301 72.8833C81.531 73.532 87.5269 79.0877 93.8861 85.2663C97.0646 88.355 100.335 91.5997 103.077 94.462C104.447 95.8932 105.685 97.2281 106.712 98.3965C107.738 99.5649 108.554 100.57 109.067 101.319C109.756 102.32 110.343 103.542 110.751 104.875C111.161 106.21 111.397 107.658 111.397 109.114C111.399 110.609 111.15 112.113 110.596 113.522C110.18 114.58 109.594 115.586 108.806 116.505C107.623 117.884 105.985 119.071 103.757 119.925C101.529 120.776 98.7093 121.289 95.1944 121.288C94.8043 121.288 94.4877 121.607 94.4877 121.999H101.827C102.384 121.865 102.919 121.715 103.43 121.547C105.129 120.99 106.572 120.25 107.777 119.368C109.586 118.047 110.854 116.408 111.658 114.639C111.842 114.234 112.001 113.821 112.139 113.405C112.209 113.62 112.286 113.833 112.369 114.043C112.84 115.241 113.508 116.389 114.404 117.433C115.747 119 117.599 120.326 120.022 121.253C120.775 121.541 121.583 121.79 122.449 121.998H129.792C129.792 121.605 129.475 121.287 129.085 121.287C125.96 121.288 123.385 120.882 121.287 120.195C119.713 119.678 118.407 119.003 117.331 118.216C115.718 117.034 114.615 115.604 113.904 114.045C113.195 112.488 112.881 110.795 112.881 109.111C112.881 107.656 113.116 106.208 113.527 104.873C113.937 103.539 114.523 102.318 115.211 101.316C115.476 100.93 115.822 100.474 116.236 99.9649C117.011 99.0077 118.024 97.8592 119.197 96.5888C121.25 94.3646 123.8 91.7639 126.466 89.1175C130.467 85.1466 134.73 81.0702 137.993 77.9885C139.624 76.4471 141.006 75.1543 141.979 74.2475C142.466 73.7936 142.85 73.437 143.113 73.1918C143.244 73.071 143.345 72.9771 143.413 72.9138C143.481 72.8504 143.516 72.8187 143.516 72.8187C143.804 72.556 143.823 72.1055 143.56 71.8158Z" fill="#8AB19E" fill-opacity="0.25"/>
<path d="M68.8008 71.8158C68.538 71.526 68.0906 71.5072 67.8033 71.7724C67.8009 71.7735 61.8167 77.2999 55.2682 83.6451C51.994 86.8182 48.5784 90.1955 45.6955 93.1939C44.2541 94.6931 42.9458 96.0984 41.8524 97.3384C41.3057 97.9589 40.8128 98.5373 40.3829 99.0675C39.9531 99.5977 39.5874 100.08 39.2907 100.509C38.5116 101.644 37.8691 102.99 37.4182 104.454C37.4054 104.498 37.3925 104.541 37.3797 104.584C37.3669 104.541 37.354 104.498 37.3412 104.454C36.8903 102.989 36.249 101.644 35.4687 100.509C35.1731 100.079 34.8063 99.5977 34.3765 99.0675C33.5705 98.0727 32.5425 96.9079 31.3557 95.6222C29.28 93.3746 26.7183 90.7621 24.0433 88.1063C16.0184 80.1399 6.95963 71.7747 6.9573 71.7724C6.66877 71.5072 6.22255 71.526 5.95973 71.8158C5.69573 72.1055 5.71559 72.556 6.00295 72.8211C6.00295 72.8211 6.02631 72.8422 6.0707 72.8833C6.77157 73.532 12.7675 79.0877 19.1267 85.2663C22.3052 88.355 25.5759 91.5997 28.3175 94.462C29.6877 95.8932 30.9259 97.2281 31.9526 98.3965C32.9782 99.5649 33.7948 100.57 34.3076 101.319C34.9967 102.32 35.5831 103.542 35.992 104.875C36.402 106.21 36.6379 107.658 36.6379 109.114C36.6379 110.609 36.3903 112.113 35.8366 113.522C35.4208 114.58 34.8344 115.586 34.0471 116.505C32.8638 117.884 31.2261 119.071 28.9973 119.925C26.7697 120.776 23.9499 121.289 20.435 121.288C20.0449 121.288 19.7283 121.607 19.7283 121.999H27.0664C27.6236 121.865 28.1586 121.715 28.6691 121.547C30.3687 120.99 31.8113 120.25 33.0168 119.368C34.825 118.047 36.0936 116.408 36.8973 114.639C37.0818 114.234 37.2407 113.821 37.3785 113.405C37.4486 113.62 37.5257 113.833 37.6086 114.043C38.0794 115.241 38.7476 116.389 39.6435 117.433C40.9868 119 42.8383 120.326 45.261 121.253C46.0144 121.541 46.8227 121.79 47.6883 121.998H55.0311C55.0311 121.605 54.7145 121.287 54.3244 121.287C51.1997 121.288 48.624 120.882 46.526 120.195C44.9526 119.678 43.6466 119.003 42.5708 118.216C40.9576 117.034 39.8549 115.604 39.1436 114.045C38.4345 112.488 38.1215 110.795 38.1215 109.111C38.1215 107.656 38.3562 106.208 38.7674 104.873C39.1774 103.539 39.7638 102.318 40.4518 101.316C40.717 100.93 41.0639 100.474 41.4763 99.9649C42.2519 99.0077 43.2647 97.8592 44.4375 96.5888C46.491 94.3646 49.041 91.7639 51.7078 89.1175C55.7074 85.1466 59.9711 81.0702 63.2336 77.9885C64.8643 76.4471 66.2462 75.1543 67.2192 74.2475C67.7063 73.7936 68.0906 73.437 68.3535 73.1918C68.4843 73.071 68.5859 72.9771 68.6537 72.9138C68.7214 72.8504 68.7565 72.8187 68.7565 72.8187C69.045 72.556 69.0637 72.1055 68.8008 71.8158Z" fill="#8AB19E" fill-opacity="0.25"/>
</g>
<defs>
<clipPath id="clip0_27_3">
<rect width="149.519" height="122" fill="white"/>
</clipPath>
</defs>
</svg>
