<?xml version="1.0" encoding="UTF-8"?>
<svg id="_レイヤー_1" data-name=" レイヤー 1" xmlns="http://www.w3.org/2000/svg" width="256" height="256" viewBox="0 0 256 256">
  <defs>
    <style>
      .cls-1 {
        fill: #300;
      }

      .cls-1, .cls-2 {
        stroke-width: 0px;
      }

      .cls-2 {
        fill: #ff9a00;
      }
    </style>
  </defs>
  <rect class="cls-1" x="-3.28" width="262.56" height="256" rx="43.59" ry="43.59"/>
  <path class="cls-2" d="m123.95,153.63h-40.69l-8.28,25.72c-.23.97-1.12,1.63-2.11,1.59h-20.61c-1.18,0-1.59-.65-1.23-1.94l35.23-101.45c.35-1.06.7-2.26,1.06-3.61.46-2.35.7-4.74.7-7.13-.05-.34.07-.68.31-.92s.59-.36.92-.31h28.01c.82,0,1.29.29,1.41.88l39.98,112.73c.35,1.18,0,1.76-1.06,1.76h-22.9c-.81.09-1.57-.44-1.76-1.23l-8.98-26.07v-.02h0Zm-34.35-22.19h27.83l-.4-1.31h0l-.64-2.07h0l-.45-1.46h0l-.72-2.29h0l-1.54-4.83h0l-1.36-4.28h0l-3.52-11.15h0c-.91-2.87-1.75-5.65-2.52-8.35l-.64-2.27h0l-.75-2.68h0l-1.15-4.15c-.07-.26-.14-.52-.21-.78h-.18c-.88,4.23-1.95,8.41-3.22,12.54l-2.61,8.4h0l-1.44,4.64h0l-1.45,4.7c-.26.85-.52,1.69-.78,2.52l-.78,2.46h0l-.78,2.4h0l-.77,2.34h0l-.77,2.28c-.25.75-.51,1.49-.76,2.23l-.38,1.09v.02h-.01Zm92.82-47.2c-3.63.15-7.16-1.26-9.69-3.88-2.52-2.72-3.85-6.33-3.7-10.04-.13-3.67,1.31-7.23,3.96-9.78,2.53-2.43,5.9-3.79,9.4-3.79h.38c4.23,0,7.54,1.27,9.95,3.79,2.45,2.65,3.75,6.17,3.61,9.78.15,3.72-1.22,7.34-3.79,10.04-2.6,2.56-6.12,3.96-9.75,3.89h-.38,0Zm-12.15,94.94v-84.19c0-1.06.47-1.59,1.41-1.59h21.67c.94,0,1.41.53,1.41,1.59v84.19c0,1.18-.47,1.76-1.41,1.76h-21.49c-1,0-1.53-.53-1.58-1.58v-.18h0Z"/>
</svg>