<?xml version="1.0" encoding="UTF-8"?>
<svg id="_レイヤー_1" data-name="レイヤー 1" xmlns="http://www.w3.org/2000/svg" width="256" height="256" viewBox="0 0 256 256">
  <defs>
    <style>
      .cls-1 {
        fill: #470137;
      }

      .cls-1, .cls-2 {
        stroke-width: 0px;
      }

      .cls-2 {
        fill: #ff61f6;
      }
    </style>
  </defs>
  <rect class="cls-1" x="-3.28" y="-.2" width="262.56" height="256" rx="43.59" ry="43.59"/>
  <path class="cls-2" d="m134.75,67.12l-32.76,54.07,35.05,57.42c.22.4.29.87.18,1.32-.05.19-.17.24-.35.24h-.2s-.24,0-.24,0c-.13,0-.28,0-.44.03h-25.27s-.5,0-.5,0c-1.36-.04-2.34-.23-2.94-1.23-2.35-4.58-4.7-9.13-7.05-13.65-2.06-3.95-4.22-7.98-6.5-12.07l-.98-1.76c-2.64-4.69-5.25-9.45-7.84-14.27h-.18c-2.35,4.7-4.79,9.39-7.31,14.09-2.53,4.7-5.02,9.37-7.49,14-2.47,4.64-4.99,9.25-7.57,13.83-.42.93-1.1,1.13-2.07,1.16h-.4s-24.13,0-24.13,0h-.1s-.35.03-.35.03c-.19.01-.31-.03-.34-.32-.07-.43.03-.87.26-1.23l33.99-55.84-33.11-56.01c-.35-.47-.41-.85-.18-1.14.26-.3.66-.47,1.06-.44h24.83c.54-.03,1.08.06,1.59.26.42.24.78.57,1.06.97,2.11,4.7,4.46,9.39,7.05,14.09,2.58,4.7,5.19,9.34,7.84,13.91,2.64,4.58,5.08,9.22,7.31,13.91h.18c2.35-4.81,4.73-9.51,7.13-14.09,2.41-4.58,4.87-9.19,7.4-13.83,2.52-4.64,4.96-9.25,7.31-13.83.14-.43.38-.83.7-1.14.43-.22.92-.31,1.41-.26h23.07c.46-.11.93.11,1.14.53.19.38.12.84-.17,1.15l-.09.09Zm51.76,115.36h-1.22c-8.11.14-16.14-1.55-23.51-4.92-6.87-3.18-12.61-8.37-16.47-14.88-3.89-6.46-5.88-14.5-5.98-24.14v-.78c-.07-8.08,2-16.04,5.98-23.07,4-6.96,9.82-12.7,16.83-16.58l.6-.33c7.63-4.23,16.85-6.34,27.65-6.34h.47s.54.02.54.02h0l.61.03h0l.67.04h0l1.13.08h0l1.28.1h0l.94.08h0v-34.7c0-.82.35-1.23,1.06-1.23h22.19c.29-.04.58.06.79.26.21.21.31.5.26.79v104.1c0,1.75.07,3.63.2,5.65l.33,4.57h0l.17,2.64h0c.04.75-.38,1.45-1.06,1.76-5.73,2.39-11.69,4.16-17.79,5.28-5.18.96-10.43,1.48-15.69,1.57h0Zm9.53-21.83v-48.09c-.95-.26-1.92-.43-2.91-.53-1.2-.12-2.41-.18-3.61-.18-4.27-.04-8.5.92-12.33,2.82-3.73,1.85-6.92,4.65-9.25,8.1-2.33,3.4-3.53,7.84-3.61,13.32v.59c-.09,3.84.54,7.66,1.85,11.27,1.06,2.91,2.75,5.55,4.93,7.75,2.09,2.02,4.62,3.53,7.4,4.4,2.93.95,5.99,1.42,9.07,1.41,1.64,0,3.17-.06,4.58-.18,1.13-.08,2.24-.27,3.33-.55l.54-.15Z"/>
</svg>