<?xml version="1.0" encoding="UTF-8"?>
<svg id="_レイヤー_1" data-name="レイヤー 1" xmlns="http://www.w3.org/2000/svg" width="170.67" height="256" viewBox="0 0 170.67 256">
  <defs>
    <style>
      .cls-1 {
        fill: #a259ff;
      }

      .cls-1, .cls-2, .cls-3, .cls-4, .cls-5 {
        stroke-width: 0px;
      }

      .cls-2 {
        fill: #1abcfe;
      }

      .cls-3 {
        fill: #0acf83;
      }

      .cls-4 {
        fill: #f24e1e;
      }

      .cls-5 {
        fill: #ff7262;
      }
    </style>
  </defs>
  <path class="cls-3" d="m42.67,256c23.55,0,42.67-19.11,42.67-42.67v-42.67h-42.67c-23.55,0-42.67,19.11-42.67,42.67s19.11,42.67,42.67,42.67Z"/>
  <path class="cls-1" d="m0,128c0-23.55,19.11-42.67,42.67-42.67h42.67v85.33h-42.67c-23.55,0-42.67-19.11-42.67-42.67Z"/>
  <path class="cls-4" d="m0,42.67C0,19.11,19.11,0,42.67,0h42.67v85.33h-42.67C19.11,85.33,0,66.22,0,42.67Z"/>
  <path class="cls-5" d="m85.33,0h42.67c23.55,0,42.67,19.11,42.67,42.67s-19.11,42.67-42.67,42.67h-42.67V0Z"/>
  <path class="cls-2" d="m170.67,128c0,23.55-19.11,42.67-42.67,42.67s-42.67-19.11-42.67-42.67,19.11-42.67,42.67-42.67,42.67,19.11,42.67,42.67Z"/>
</svg>