<?xml version="1.0" encoding="UTF-8"?>
<svg id="_レイヤー_1" data-name="レイヤー 1" xmlns="http://www.w3.org/2000/svg" width="245.02" height="256" viewBox="0 0 245.02 256">
  <defs>
    <style>
      .cls-1, .cls-2 {
        stroke-width: 0px;
      }

      .cls-2 {
        fill: #fff;
      }
    </style>
  </defs>
  <path class="cls-2" d="m15.4,11.04L157.05.58c17.4-1.49,21.87-.49,32.81,7.47l45.22,31.85c7.46,5.48,9.94,6.97,9.94,12.94v174.7c0,10.95-3.98,17.42-17.89,18.41l-164.5,9.96c-10.44.49-15.42-1-20.89-7.97l-33.3-43.3c-5.97-7.97-8.45-13.93-8.45-20.91V28.45C0,19.5,3.98,12.03,15.4,11.04Z"/>
  <path class="cls-1" d="m157.05.58L15.4,11.04C3.98,12.03,0,19.5,0,28.45v155.29c0,6.97,2.47,12.94,8.45,20.91l33.3,43.3c5.47,6.97,10.44,8.46,20.89,7.97l164.5-9.96c13.91-.99,17.89-7.47,17.89-18.41V52.84c0-5.66-2.24-7.29-8.81-12.12-.38-.27-.76-.55-1.13-.82l-45.21-31.85C178.92.1,174.45-.91,157.05.58Zm-90.7,49.4c-13.43.9-16.48,1.11-24.11-5.09l-19.4-15.43c-1.97-2-.98-4.49,3.99-4.98l136.17-9.95c11.43-1,17.39,2.99,21.86,6.47l23.36,16.92c1,.5,3.48,3.48.49,3.48l-140.63,8.46-1.74.12Zm-15.66,176.07V77.74c0-6.48,1.99-9.46,7.94-9.97l161.52-9.45c5.48-.49,7.95,2.99,7.95,9.45v147.32c0,6.48-1,11.96-9.94,12.45l-154.56,8.96c-8.94.49-12.91-2.48-12.91-10.45ZM203.27,85.69c.99,4.48,0,8.96-4.48,9.47l-7.45,1.48v109.5c-6.47,3.48-12.42,5.47-17.4,5.47-7.95,0-9.94-2.49-15.9-9.95l-48.72-76.65v74.15l15.41,3.49s0,8.96-12.43,8.96l-34.28,1.99c-1-2,0-6.97,3.47-7.96l8.95-2.48v-98.05l-12.42-1.01c-1-4.48,1.48-10.95,8.45-11.45l36.78-2.47,50.69,77.64v-68.68l-12.92-1.48c-1-5.49,2.98-9.47,7.94-9.96l34.3-2h0Z"/>
</svg>