<?xml version="1.0" encoding="UTF-8"?>
<svg id="_レイヤー_1" data-name="レイヤー 1" xmlns="http://www.w3.org/2000/svg" width="256" height="256" viewBox="0 0 256 256">
  <defs>
    <style>
      .cls-1 {
        fill: #00dc82;
        stroke-width: 0px;
      }
    </style>
  </defs>
  <path class="cls-1" d="m144.07,211.54h95.17c3.02,0,5.99-.77,8.61-2.24s4.79-3.57,6.3-6.11c1.51-2.54,2.3-5.42,2.3-8.35s-.8-5.81-2.31-8.35l-63.91-107.38c-1.51-2.54-3.68-4.65-6.3-6.11-2.62-1.47-5.59-2.24-8.61-2.24s-5.99.77-8.61,2.24c-2.62,1.47-4.79,3.57-6.3,6.11l-16.34,27.47-31.95-53.72c-1.51-2.54-3.69-4.65-6.3-6.11-2.62-1.47-5.59-2.24-8.61-2.24s-5.99.77-8.61,2.24c-2.62,1.47-4.79,3.57-6.3,6.11L2.77,186.49c-1.51,2.54-2.31,5.42-2.31,8.35s.79,5.81,2.3,8.35c1.51,2.54,3.68,4.65,6.3,6.11,2.62,1.47,5.59,2.24,8.61,2.24h59.74c23.67,0,41.12-10.08,53.13-29.76l29.16-48.98,15.62-26.21,46.87,78.74h-62.49l-15.63,26.21Zm-67.64-26.24h-41.69s62.49-104.99,62.49-104.99l31.18,52.49-20.88,35.08c-7.98,12.77-17.04,17.42-31.11,17.42Z"/>
</svg>