<?xml version="1.0" encoding="UTF-8"?>
<svg id="_レイヤー_1" data-name="レイヤー 1" xmlns="http://www.w3.org/2000/svg" width="256" height="256" viewBox="0 0 256 256">
  <defs>
    <style>
      .cls-1 {
        fill: #464342;
        stroke-width: 0px;
      }
    </style>
  </defs>
  <path class="cls-1" d="m18.62,128c0,43.3,25.16,80.71,61.65,98.44L28.09,83.48c-6.07,13.6-9.47,28.66-9.47,44.51h0Zm183.22-5.52c0-13.52-4.86-22.88-9.02-30.17-5.54-9.01-10.74-16.64-10.74-25.65,0-10.05,7.63-19.41,18.37-19.41.48,0,.94.06,1.42.09-19.46-17.83-45.39-28.71-73.86-28.71-38.21,0-71.83,19.61-91.39,49.3,2.57.08,4.98.13,7.04.13,11.44,0,29.15-1.39,29.15-1.39,5.9-.35,6.59,8.31.7,9.01,0,0-5.93.7-12.52,1.04l39.83,118.48,23.94-71.79-17.04-46.69c-5.89-.35-11.47-1.04-11.47-1.04-5.89-.35-5.2-9.36.69-9.01,0,0,18.06,1.39,28.81,1.39,11.44,0,29.15-1.39,29.15-1.39,5.9-.35,6.59,8.31.7,9.01,0,0-5.94.7-12.52,1.04l39.53,117.58,10.91-36.46c4.73-15.13,8.33-26,8.33-35.36h0Zm-71.92,15.09l-32.82,95.36c9.8,2.88,20.16,4.46,30.9,4.46,12.74,0,24.95-2.2,36.32-6.2-.29-.47-.56-.97-.78-1.51l-33.63-92.11h0Zm94.06-62.05c.47,3.48.74,7.22.74,11.25,0,11.1-2.07,23.58-8.32,39.18l-33.41,96.6c32.52-18.96,54.39-54.19,54.39-94.55,0-19.02-4.86-36.9-13.4-52.48h0ZM128,.5C57.69.5.49,57.69.49,128s57.2,127.51,127.5,127.51,127.51-57.19,127.51-127.51c0-70.3-57.21-127.5-127.51-127.5h0Zm0,249.16c-67.08,0-121.66-54.58-121.66-121.66S60.91,6.34,128,6.34s121.65,54.57,121.65,121.65-54.57,121.66-121.65,121.66h0Z"/>
</svg>