<svg width="59" height="114" viewBox="0 0 59 114" fill="none" xmlns="http://www.w3.org/2000/svg">
<path d="M39.7842 104.586C39.7842 109.284 35.9762 113.092 31.2788 113.092C26.5815 113.092 22.7735 109.284 22.7735 104.586C22.7735 99.8891 26.5815 96.0811 31.2788 96.0811C35.9762 96.0811 39.7842 99.8891 39.7842 104.586Z" fill="#C2DCF2"/>
<path d="M58.0463 59.2498C58.0463 65.3565 53.0956 70.3071 46.9903 70.3071C40.8836 70.3071 35.9329 65.3565 35.9329 59.2498C35.9329 53.1431 40.8836 48.1925 46.9903 48.1925C53.0956 48.1925 58.0463 53.1431 58.0463 59.2498Z" fill="#E7F1FA"/>
<path d="M28.748 14.3734C28.748 22.312 22.312 28.748 14.3733 28.748C6.436 28.748 0 22.312 0 14.3734C0 6.43605 6.436 4.49196e-05 14.3733 4.49196e-05C22.312 4.49196e-05 28.748 6.43605 28.748 14.3734Z" fill="#C2DCF2"/>
</svg>
