<svg width="57" height="169" viewBox="0 0 57 169" fill="none" xmlns="http://www.w3.org/2000/svg">
<path d="M16.1136 159.962C16.1136 164.826 20.0576 168.77 24.9216 168.77C29.7856 168.77 33.7296 164.826 33.7296 159.962C33.7296 155.098 29.7856 151.154 24.9216 151.154C20.0576 151.154 16.1136 155.098 16.1136 159.962Z" fill="#DDF3FC"/>
<path d="M38.9111 65.6628C38.9111 70.5268 42.8551 74.4708 47.7191 74.4708C52.5845 74.4708 56.5271 70.5268 56.5271 65.6628C56.5271 60.7988 52.5845 56.8548 47.7191 56.8548C42.8551 56.8548 38.9111 60.7988 38.9111 65.6628Z" fill="#DDF3FC"/>
<path d="M0 106.076C0 112.401 5.12667 117.528 11.4507 117.528C17.7747 117.528 22.9013 112.401 22.9013 106.076C22.9013 99.752 17.7747 94.6253 11.4507 94.6253C5.12667 94.6253 0 99.752 0 106.076Z" fill="#AAE1F8"/>
<path d="M23.5076 14.8853C23.5076 23.108 30.1729 29.772 38.3942 29.772C46.6142 29.772 53.2782 23.108 53.2782 14.8853C53.2782 6.66531 46.6142 -2.36568e-05 38.3942 -2.36568e-05C30.1729 -2.36568e-05 23.5076 6.66531 23.5076 14.8853Z" fill="#AAE1F8"/>
</svg>
