<svg width="61" height="72" viewBox="0 0 61 72" fill="none" xmlns="http://www.w3.org/2000/svg">
<path d="M17.8643 2.26128C26.607 -1.40672 37.267 -0.77472 44.1056 5.35328C51.963 12.3933 47.6563 20.2999 39.547 25.1159C32.2603 29.4426 23.483 31.6853 15.151 32.8933C9.40963 33.7266 2.52963 33.0839 0.522962 26.6146C-1.14904 21.2279 0.333628 9.61595 17.8643 2.26128Z" fill="#6AC5D2"/>
<path d="M43.6008 24.7125C43.6008 24.7125 48.3155 25.0098 48.8541 30.9698C49.0781 33.4511 48.7901 36.5218 49.9315 38.8271C53.1821 45.3898 61.4781 49.3298 60.3755 57.8591C60.2088 59.1565 59.2315 60.8818 58.2448 61.7005C57.2888 62.4925 55.5541 62.3511 55.5315 60.8205C55.5208 60.0725 55.9368 59.3965 56.2741 58.7298C57.9475 55.4151 57.0541 52.4018 54.5581 49.8471C52.8181 48.0671 50.9728 46.4591 49.4035 44.5151C46.8021 41.2911 47.2381 38.7951 46.9395 34.9858C46.7168 32.1551 44.9021 30.4978 43.5288 28.2245C42.9981 27.3471 41.4875 24.5791 43.6008 24.7125Z" fill="#6AC5D2"/>
<path d="M36.2005 28.5691C40.2898 30.0957 40.6632 36.2237 42.1165 39.6851C43.4712 42.9051 45.4205 45.6451 47.4818 48.4664C49.5485 51.2984 51.5645 54.3344 52.2045 57.9211C52.5498 59.8611 52.8978 61.8237 52.7858 63.7917C52.7378 64.6251 52.5418 65.5597 51.8312 65.9984C49.0792 67.6931 49.0752 62.5277 49.0378 61.0664C48.9312 56.9824 48.8925 55.1277 46.4018 51.5651C43.2912 47.1157 40.7938 42.2744 37.6685 37.8597C36.4058 36.0771 32.2472 30.7157 35.0658 28.7144C35.4325 28.4544 35.8152 28.4251 36.2005 28.5691Z" fill="#6AC5D2"/>
<path d="M29.2503 32.7425C30.0916 33.5585 30.3063 34.7199 30.6716 35.7812C31.1676 37.2239 31.797 38.6319 32.4863 39.9919C33.809 42.5972 35.473 44.8972 37.2743 47.1839C38.561 48.8159 39.8103 50.5812 40.081 52.6945C40.377 55.0105 39.3156 57.2425 39.4983 59.5505C39.7636 62.9172 43.4956 65.6105 42.561 69.1225C42.4823 69.4212 42.3316 69.7465 42.0356 69.8332C41.7943 69.9039 41.5396 69.7865 41.3223 69.6599C38.541 68.0519 37.4716 64.8279 37.057 61.8185C36.5823 58.3839 37.445 54.7959 36.0516 51.4919C34.7543 48.4092 32.2543 46.1199 30.3823 43.4119C28.549 40.7572 27.105 37.8625 26.2796 34.7359C26.1263 34.1519 25.993 33.5319 26.1543 32.9505C26.593 31.3692 28.385 31.9052 29.2503 32.7425Z" fill="#6AC5D2"/>
<path d="M20.7724 34.3277C21.4644 33.749 22.4484 33.789 23.0337 35.0237C23.5031 36.013 23.6844 37.2037 23.7351 38.2903C24.0097 44.1237 25.3271 49.7397 27.9604 52.757C30.5924 55.7757 32.9804 65.1543 31.2444 67.7357C29.5071 70.317 28.3271 67.873 27.9644 65.2543C27.6017 62.6357 28.3924 57.969 26.0524 54.721C23.8817 51.7063 22.2137 48.321 21.1764 44.753C20.6524 42.945 20.2897 41.0877 20.1151 39.213C19.9764 37.733 19.4764 35.4117 20.7724 34.3277Z" fill="#6AC5D2"/>
<path d="M13.4081 36.7561C12.9161 37.6294 12.7721 38.9867 12.6881 39.7027C12.4774 41.4667 12.5254 43.7134 13.6401 45.1814C15.6841 47.8761 15.9161 51.5681 15.5654 54.8107C15.2281 57.9281 15.0134 61.0987 15.6881 64.1881C16.2308 66.6721 17.2641 69.7334 19.6254 71.0547C21.8481 72.2974 20.0868 66.4307 19.8294 65.7187C18.9041 63.1721 17.5321 60.6041 17.4894 57.8334C17.4534 55.5067 17.9081 53.1934 18.0508 50.8734C18.1401 49.4294 18.0988 47.9494 17.7028 46.5494C17.3188 45.1867 16.3121 44.1614 15.8521 42.8294C15.2561 41.1094 16.1361 39.6374 16.0201 37.9267C15.9521 36.9174 15.5308 35.6041 14.2548 35.9881C13.8934 36.0974 13.6188 36.3827 13.4081 36.7561Z" fill="#6AC5D2"/>
</svg>
