<svg width="67" height="108" viewBox="0 0 67 108" fill="none" xmlns="http://www.w3.org/2000/svg">
<path d="M45.7357 0.41192C39.4263 -0.89608 32.6677 0.977254 27.7503 5.09192C25.4317 7.03059 23.381 9.53725 21.4903 11.8906C20.041 13.6959 17.901 16.2506 17.9597 18.7279C17.9903 20.0653 18.8183 20.9239 20.061 21.3306C20.9597 21.6253 21.9037 21.7773 22.8503 21.7813C23.665 21.7853 24.625 21.4013 25.361 21.7133C26.8717 22.3533 27.2063 24.5399 28.8223 25.1679C30.9503 25.9946 32.7517 23.1706 34.5983 24.0186C34.9957 24.2013 35.3197 24.5093 35.6357 24.8106C36.5477 25.6839 37.713 27.3839 39.113 27.2946C40.337 27.2173 41.0503 25.9426 42.221 25.7093C44.2223 25.3079 45.6343 26.8946 47.085 27.9453C47.6303 28.3399 48.2357 28.6959 48.905 28.7666C50.849 28.9719 51.9383 26.7879 54.1783 27.6173C54.765 27.8359 55.2837 28.1986 55.829 28.5053C57.5023 29.4479 59.5503 30.0453 61.4463 29.5173C62.8103 29.1373 63.9957 28.9773 65.373 28.7719C66.6623 28.5786 67.089 28.0719 66.6503 26.7306C65.6397 23.6426 64.7557 4.35592 45.7357 0.41192Z" fill="#54C3F1"/>
<path d="M25.2112 25.2554C24.6032 25.766 23.9899 27.0287 23.8512 27.3807C22.6285 30.5074 23.0632 34.1647 23.8059 37.3434C25.9525 46.5367 29.6299 50.5314 22.9259 60.8367C16.2245 71.142 13.1152 79.466 14.9099 87.3954C15.7752 91.2234 12.6045 94.346 9.69919 96.3407C7.00319 98.1927 3.79919 99.5927 1.41919 101.858C2.50586 102.653 4.02586 102.23 5.17386 101.73C8.18452 100.422 11.3272 98.098 13.5205 95.6754C16.5979 92.278 17.1792 88.578 16.6979 84.1807C16.4672 82.0647 16.2152 79.8687 16.6419 77.7607C17.0552 75.722 18.1525 73.7034 19.0699 71.85C21.2232 67.5007 23.5885 63.2527 25.5459 58.8074C27.6872 53.942 29.1352 49.5434 27.2152 44.3514C25.7285 40.334 24.0765 36.53 24.7579 32.1447C25.0832 30.0474 26.3032 28.118 26.2379 25.978C26.2285 25.6807 26.1859 25.3554 25.9659 25.1554C25.7419 24.9527 25.4765 25.0327 25.2112 25.2554Z" fill="#54C3F1"/>
<path d="M30.2986 27.1489C30.028 27.1902 29.784 27.3889 29.5986 27.6022C28.4586 28.9089 28.5306 30.8395 28.6253 32.5702C29.0213 39.7862 28.5093 48.3609 22.1426 53.0209C19.9493 54.6262 17.4253 55.6902 15.196 57.2262C12.996 58.7422 11.4733 61.1075 10.5693 63.5875C8.31597 69.7715 10.004 77.6369 5.8693 83.1115C4.39863 85.0609 2.5573 84.2529 0.835966 85.6035C-1.43603 87.3862 1.49863 87.7529 2.83597 87.5955C4.77197 87.3649 6.6773 86.3849 7.5013 84.5355C9.55997 79.9129 10.4066 74.8369 10.9813 69.8422C11.3906 66.2795 12.1213 61.0369 15.368 58.8422C18.4053 56.7875 21.6706 55.2009 24.404 52.7049C29.284 48.2489 30.4693 42.1582 31.1266 35.8369C31.3893 33.3222 31.724 30.8729 31.3066 28.3502C31.22 27.8329 30.9973 27.2062 30.4746 27.1462C30.4146 27.1382 30.356 27.1409 30.2986 27.1489Z" fill="#54C3F1"/>
<path d="M36.2424 27.6904C36.2424 27.6904 35.6224 28.3184 35.1144 35.465C34.6064 42.613 33.6664 47.329 29.8904 50.8477C26.1131 54.3677 15.3958 57.821 13.5584 69.093C11.7198 80.3637 10.4958 90.6997 3.22111 93.2624C3.22111 93.2624 0.33311 94.7984 0.463777 96.2144C0.59311 97.6317 8.13444 95.6424 11.7131 86.081C15.2904 76.5184 11.8744 65.089 21.7051 58.7064C31.5371 52.3224 32.3264 51.1037 34.3811 46.6544C36.4344 42.205 37.6971 31.9957 37.6971 31.9957C37.6971 31.9957 38.0024 27.221 36.2424 27.6904Z" fill="#54C3F1"/>
<path d="M42.8961 28.3901C41.9574 29.4648 41.0628 31.6234 40.8734 32.0528C39.6014 34.9354 38.6774 38.0208 38.4494 41.1728C37.9548 48.0208 25.8948 61.9208 25.2454 73.2901C24.5961 84.6608 22.7348 94.3994 17.1228 99.8141C11.5108 105.227 18.3148 104.489 22.7348 94.3994C27.1548 84.3101 26.3801 77.2221 26.9788 74.1074C27.5761 70.9941 28.6428 65.3354 31.8894 59.6474C35.6081 53.1328 37.4641 50.7968 39.0574 45.8381C40.2828 42.0274 40.7228 38.0021 41.9588 34.2021C42.3654 32.9554 45.2428 29.1954 44.3974 28.0954C43.9601 27.5261 43.4214 27.7888 42.8961 28.3901Z" fill="#54C3F1"/>
<path d="M47.5696 31.3849C47.5696 31.3849 45.2109 30.5835 42.4642 41.9262C41.4029 46.3075 40.5096 50.7702 38.8362 54.9595C36.7162 60.2702 32.8469 64.6969 30.9136 70.0942C29.1402 75.0435 28.9936 80.4009 29.1562 85.5995C29.3282 91.0475 27.4749 95.7662 24.8336 100.401C24.0696 101.741 23.4296 103.328 23.1349 104.84C22.6909 107.116 24.3562 108.393 25.7656 105.928C29.4429 99.5035 30.6576 91.6675 30.8562 84.3795C30.9589 80.5889 31.2242 76.7595 32.3469 73.1155C33.5016 69.3675 35.6322 65.9782 37.4309 62.5182C40.6682 56.2889 43.0562 49.7929 45.2536 43.1449C45.6442 41.9662 49.4936 32.0382 47.5696 31.3849Z" fill="#54C3F1"/>
<path d="M52.0558 30.5916C51.9358 30.661 51.8251 30.7476 51.7278 30.8503C51.4251 31.1703 51.2465 31.585 51.0745 31.989C50.0371 34.4143 48.9318 36.8156 48.1425 39.337C47.0145 42.9423 46.5131 46.733 47.0278 50.4916C48.9665 58.929 34.3998 68.165 35.0731 81.661C35.4265 88.7303 33.6718 95.281 32.3078 102.144C32.1945 102.714 32.0838 103.314 32.2571 103.869C32.4318 104.425 32.9905 104.905 33.5585 104.781C34.1158 104.66 34.4118 104.06 34.5918 103.518C35.0545 102.133 35.2758 100.681 35.4851 99.2343C36.1945 94.3156 36.7691 89.377 37.2091 84.4263C37.6078 79.9276 37.5198 74.7196 39.9265 70.729C42.0651 67.273 44.3171 63.8116 46.3318 60.261C47.5358 58.1383 48.5958 55.9063 49.2305 53.5423C49.9131 50.9956 49.5398 48.9503 49.3985 46.3863C49.2718 44.0943 49.7158 41.777 50.6558 39.685C51.6451 37.485 53.1091 35.6076 53.7571 33.237C54.0598 32.1263 53.9478 29.4996 52.0558 30.5916Z" fill="#54C3F1"/>
</svg>
