<svg width="151" height="194" viewBox="0 0 151 194" fill="none" xmlns="http://www.w3.org/2000/svg">
<path d="M106.512 23.5613C106.601 23.4879 108.08 15.7973 103.5 8.67726C99.7649 2.87326 93.9623 -1.22808 88.9236 0.334589C88.9236 0.334589 86.6956 5.11059 93.6383 15.8079C93.8956 16.2066 96.5009 21.4426 103.753 25.1199C103.753 25.1199 103.461 29.8213 104.176 31.0373C104.889 32.2546 105.706 31.7933 106.196 30.9586C106.684 30.1226 106.902 28.3133 108.948 28.2466C109.836 28.2173 112.682 28.6973 112.582 27.1853C112.521 26.2679 111.16 25.4173 110.436 25.0786C109.582 24.6799 108.704 24.3399 107.824 24.0186C107.685 23.9679 106.626 23.4679 106.512 23.5613Z" fill="#6AC5D2"/>
<path d="M98.1568 144.052C98.2728 144.048 104.086 138.8 104.718 130.358C105.233 123.475 103.073 116.706 98.1088 114.918C98.1088 114.918 93.4528 117.388 92.5515 130.11C92.5182 130.583 91.4422 136.331 95.0168 143.635C95.0168 143.635 91.9515 147.212 91.7888 148.612C91.6248 150.014 92.5555 150.139 93.4488 149.766C94.3422 149.394 95.6062 148.082 97.2795 149.26C98.0062 149.771 99.9888 151.87 100.818 150.602C101.323 149.834 100.75 148.334 100.375 147.627C99.9342 146.795 99.4368 145.994 98.9288 145.207C98.8488 145.084 98.3048 144.047 98.1568 144.052Z" fill="#6AC5D2"/>
<path d="M49.8233 157.496C49.9073 157.576 57.7286 157.988 64.1553 152.477C69.3939 147.984 72.6646 141.675 70.4259 136.897C70.4259 136.897 65.3899 135.343 55.7433 143.684C55.3846 143.993 50.5526 147.291 47.9019 154.976C47.9019 154.976 43.2046 155.331 42.0966 156.204C40.9899 157.077 41.5579 157.824 42.4526 158.193C43.3459 158.564 45.1686 158.533 45.5153 160.551C45.6659 161.425 45.5779 164.311 47.0619 164.005C47.9633 163.819 48.6206 162.355 48.8566 161.591C49.1353 160.691 49.3513 159.773 49.5499 158.857C49.5806 158.715 49.9313 157.597 49.8233 157.496Z" fill="#6AC5D2"/>
<path d="M47.8462 186.998C47.9262 187.082 55.7022 188.007 62.4756 182.929C67.9982 178.787 71.6742 172.706 69.7542 167.793C69.7542 167.793 64.8302 165.911 54.6582 173.602C54.2796 173.889 49.2422 176.862 46.0942 184.358C46.0942 184.358 41.3836 184.403 40.2222 185.203C39.0596 186.002 39.5782 186.785 40.4462 187.211C41.3142 187.639 43.1342 187.729 43.3476 189.763C43.4409 190.647 43.1649 193.521 44.6649 193.313C45.5769 193.186 46.3289 191.767 46.6142 191.021C46.9516 190.141 47.2262 189.239 47.4836 188.339C47.5249 188.198 47.9476 187.106 47.8462 186.998Z" fill="#6AC5D2"/>
<path d="M8.2983 163.017C8.37696 163.103 16.1543 164.027 22.9276 158.948C28.4503 154.807 32.1263 148.725 30.2063 143.812C30.2063 143.812 25.2823 141.931 15.109 149.621C14.7316 149.908 9.6943 152.881 6.5463 160.377C6.5463 160.377 1.83563 160.424 0.672963 161.223C-0.48837 162.021 0.0302963 162.804 0.898296 163.232C1.76496 163.659 3.5863 163.748 3.79963 165.783C3.89163 166.667 3.61696 169.54 5.11696 169.332C6.02763 169.205 6.77963 167.787 7.0663 167.041C7.4023 166.16 7.6783 165.26 7.93563 164.359C7.97563 164.217 8.39963 163.125 8.2983 163.017Z" fill="#6AC5D2"/>
<path d="M144.138 65.932C144.221 65.852 144.998 58.0574 139.793 51.3814C135.548 45.9387 129.398 42.3787 124.522 44.392C124.522 44.392 122.734 49.3494 130.617 59.376C130.909 59.748 133.977 64.728 141.532 67.7334C141.532 67.7334 141.666 72.4427 142.488 73.5894C143.308 74.736 144.081 74.2027 144.492 73.3267C144.904 72.4507 144.957 70.6294 146.988 70.3774C147.87 70.268 150.748 70.4894 150.512 68.9934C150.368 68.0854 148.936 67.36 148.184 67.088C147.297 66.768 146.392 66.5094 145.486 66.2694C145.344 66.2307 144.244 65.8294 144.138 65.932Z" fill="#6AC5D2"/>
<path d="M73.8308 114.373C73.9468 114.371 79.8788 109.258 80.7055 100.833C81.3788 93.9634 79.3735 87.1461 74.4521 85.2448C74.4521 85.2448 69.7415 87.6074 68.5468 100.305C68.5028 100.777 67.2948 106.499 70.7015 113.883C70.7015 113.883 67.5548 117.389 67.3588 118.786C67.1641 120.182 68.0908 120.329 68.9921 119.977C69.8935 119.625 71.1881 118.342 72.8335 119.558C73.5481 120.086 75.4815 122.23 76.3415 120.982C76.8628 120.225 76.3241 118.713 75.9668 117.998C75.5441 117.155 75.0668 116.343 74.5748 115.545C74.4988 115.421 73.9788 114.371 73.8308 114.373Z" fill="#6AC5D2"/>
<path d="M92.3441 51.9023C92.4548 51.8703 96.8001 45.3543 95.3375 37.0143C94.1455 30.217 90.3868 24.1863 85.1361 23.6743C85.1361 23.6743 81.2308 27.2117 83.4828 39.765C83.5668 40.2317 83.9375 46.069 89.1975 52.269C89.1975 52.269 87.1055 56.4903 87.2921 57.889C87.4775 59.2863 88.4108 59.1783 89.1855 58.5983C89.9588 58.017 90.8628 56.4343 92.7735 57.165C93.6028 57.4823 96.0415 59.029 96.5348 57.597C96.8335 56.7277 95.9095 55.4143 95.3735 54.8223C94.7415 54.1237 94.0628 53.4703 93.3761 52.8317C93.2681 52.733 92.4868 51.861 92.3441 51.9023Z" fill="#6AC5D2"/>
<path d="M109.05 94.9763C109.166 94.9723 114.983 89.7297 115.623 81.287C116.145 74.4057 113.99 67.6337 109.027 65.8417C109.027 65.8417 104.37 68.3083 103.457 81.0283C103.423 81.5017 102.342 87.2497 105.91 94.5563C105.91 94.5563 102.842 98.131 102.677 99.531C102.513 100.932 103.443 101.058 104.337 100.686C105.23 100.314 106.495 99.003 108.167 100.183C108.894 100.695 110.874 102.795 111.706 101.528C112.21 100.76 111.639 99.2603 111.266 98.5537C110.825 97.7203 110.329 96.919 109.821 96.1323C109.741 96.0097 109.198 94.971 109.05 94.9763Z" fill="#6AC5D2"/>
</svg>
