<svg width="111" height="148" viewBox="0 0 111 148" fill="none" xmlns="http://www.w3.org/2000/svg">
<path d="M79.5704 131.395C79.6317 131.272 88.1184 127.588 97.5064 131.039C105.16 133.852 111.382 139.487 110.876 145.699C110.876 145.699 105.942 149.497 91.8224 144.244C91.297 144.048 84.5877 142.392 78.4837 134.976C78.4837 134.976 73.137 136.523 71.5504 136.012C69.965 135.503 70.2864 134.44 71.1237 133.663C71.9597 132.884 73.9904 132.167 73.541 129.791C73.3464 128.76 72.0597 125.601 73.829 125.328C74.9024 125.163 76.2357 126.512 76.8117 127.26C77.4917 128.141 78.109 129.068 78.705 130C78.7984 130.145 79.6477 131.239 79.5704 131.395Z" fill="#54C3F1"/>
<path d="M55.7074 8.5736C55.8394 8.53626 64.2607 12.3709 67.9874 21.6523C71.026 29.2189 71.0114 37.6136 66.0594 41.3989C66.0594 41.3989 59.9354 40.2803 54.3754 26.2776C54.1687 25.7563 50.9034 19.6669 52.3207 10.1656C52.3207 10.1656 47.59 7.23226 46.906 5.71226C46.222 4.1936 47.226 3.72026 48.3647 3.8216C49.5034 3.9216 51.3954 4.94826 52.8594 3.02293C53.494 2.18826 54.9767 -0.883736 56.3647 0.24693C57.2074 0.933597 57.098 2.82693 56.9287 3.75493C56.7287 4.85093 56.4554 5.9296 56.1634 6.9976C56.118 7.16426 55.8754 8.52693 55.7074 8.5736Z" fill="#54C3F1"/>
<path d="M13.1456 15.9732C13.2509 15.8852 22.5029 15.8865 29.7402 22.7892C35.6402 28.4172 39.1042 36.0638 36.1655 41.5612C36.1655 41.5612 30.1269 43.0812 19.2669 32.6385C18.8629 32.2505 13.3682 28.0585 10.7216 18.8252C10.7216 18.8252 5.20155 18.1145 3.95089 17.0145C2.69889 15.9158 3.41622 15.0692 4.49355 14.6892C5.57089 14.3092 7.71889 14.4585 8.25355 12.1012C8.48555 11.0772 8.56422 7.66782 10.2949 8.12115C11.3456 8.39715 12.0309 10.1665 12.2616 11.0812C12.5336 12.1612 12.7309 13.2558 12.9082 14.3492C12.9349 14.5198 13.2789 15.8612 13.1456 15.9732Z" fill="#54C3F1"/>
<path d="M9.77015 48.4891C9.86081 48.3864 19.0115 47.0197 27.1901 52.7771C33.8568 57.4704 38.4128 64.5224 36.3195 70.3931C36.3195 70.3931 30.5728 72.7877 18.2875 64.0664C17.8315 63.7411 11.7768 60.4091 7.79548 51.6677C7.79548 51.6677 2.23015 51.7811 0.830149 50.8784C-0.571185 49.9771 0.0141486 49.0331 1.02348 48.4984C2.03282 47.9624 4.17948 47.7931 4.35948 45.3824C4.43815 44.3357 4.01015 40.9531 5.79015 41.1451C6.87015 41.2624 7.80881 42.9104 8.17281 43.7811C8.60081 44.8091 8.95815 45.8637 9.29415 46.9184C9.34748 47.0837 9.88615 48.3584 9.77015 48.4891Z" fill="#54C3F1"/>
<path d="M22.0701 96.309C22.1314 96.1863 30.6181 92.5023 40.0061 95.953C47.6594 98.7663 53.8821 104.401 53.3754 110.613C53.3754 110.613 48.4421 114.412 34.3207 109.158C33.7967 108.962 27.0874 107.306 20.9834 99.8903C20.9834 99.8903 15.6367 101.437 14.0501 100.926C12.4647 100.417 12.7861 99.3543 13.6221 98.577C14.4594 97.7983 16.4901 97.081 16.0407 94.705C15.8461 93.6743 14.5594 90.5156 16.3287 90.2423C17.4021 90.077 18.7341 91.4263 19.3114 92.1743C19.9914 93.0556 20.6087 93.9823 21.2047 94.9143C21.2981 95.0596 22.1474 96.153 22.0701 96.309Z" fill="#54C3F1"/>
<path d="M59.0223 51.8154C59.121 51.7208 68.3517 51.0874 76.045 57.4781C82.317 62.6888 86.2957 70.0808 83.741 75.7661C83.741 75.7661 77.8223 77.6954 66.2703 68.0221C65.841 67.6621 60.073 63.8581 56.7997 54.8274C56.7997 54.8274 51.2437 54.4954 49.9197 53.4848C48.5957 52.4741 49.253 51.5808 50.3023 51.1274C51.3517 50.6741 53.505 50.6768 53.877 48.2874C54.0383 47.2514 53.8823 43.8434 55.6397 44.1781C56.7077 44.3808 57.5117 46.0981 57.805 46.9954C58.1503 48.0541 58.4223 49.1341 58.673 50.2128C58.713 50.3808 59.1477 51.6941 59.0223 51.8154Z" fill="#54C3F1"/>
</svg>
